<svg xmlns="http://www.w3.org/2000/svg" width="100" height="100"><path d="M50 5.207a3.127 3.127 0 0 1 3.125 3.125v8.336A3.127 3.127 0 0 1 50 19.793a3.127 3.127 0 0 1-3.125-3.125V8.332A3.127 3.127 0 0 1 50 5.207ZM15.285 15.484a3.125 3.125 0 0 1 4.414-.199l9.262 8.465a3.124 3.124 0 0 1 .195 4.414 3.121 3.121 0 0 1-4.414.2l-9.258-8.466a3.125 3.125 0 0 1-.199-4.414Zm69.43 0a3.125 3.125 0 0 1-.2 4.414l-9.257 8.465a3.121 3.121 0 0 1-4.414-.199 3.124 3.124 0 0 1 .195-4.414l9.262-8.465a3.125 3.125 0 0 1 4.414.2ZM50 32.293c-9.781 0-17.707 7.926-17.707 17.707S40.219 67.707 50 67.707 67.707 59.781 67.707 50 59.781 32.293 50 32.293ZM26.043 50c0-13.23 10.727-23.957 23.957-23.957S73.957 36.77 73.957 50 63.23 73.957 50 73.957 26.043 63.23 26.043 50ZM5.207 50a3.127 3.127 0 0 1 3.125-3.125h8.336A3.127 3.127 0 0 1 19.793 50a3.127 3.127 0 0 1-3.125 3.125H8.332A3.127 3.127 0 0 1 5.207 50Zm75 0a3.127 3.127 0 0 1 3.125-3.125h8.336A3.127 3.127 0 0 1 94.793 50a3.127 3.127 0 0 1-3.125 3.125h-8.336A3.127 3.127 0 0 1 80.207 50Zm-9.266 20.938a3.126 3.126 0 0 1 4.418 0l9.258 9.261a3.123 3.123 0 0 1 0 4.418 3.123 3.123 0 0 1-4.418 0l-9.258-9.258a3.124 3.124 0 0 1 0-4.421Zm-41.879 0a3.13 3.13 0 0 1 0 4.421l-9.261 9.258a3.12 3.12 0 0 1-4.418 0 3.12 3.12 0 0 1 0-4.418l9.258-9.261a3.13 3.13 0 0 1 4.422 0ZM50 80.207a3.127 3.127 0 0 1 3.125 3.125v8.336A3.127 3.127 0 0 1 50 94.793a3.127 3.127 0 0 1-3.125-3.125v-8.336A3.127 3.127 0 0 1 50 80.207Zm0 0" style="stroke:none;fill-rule:evenodd;fill:#efeff5;fill-opacity:1"/></svg>