<svg xmlns="http://www.w3.org/2000/svg" width="1981" height="1882" viewBox="0 0 1486 1412"><path style="stroke:none;fill-rule:evenodd;fill:#fefffe;fill-opacity:1" d="M705.492-.375h17.254c19.445 5.602 28.324 18.605 26.629 39.016-3.938 19.691-15.938 29.945-36.004 30.757-21.992-1.238-33.871-12.867-35.633-34.886 1.426-18.04 10.68-29.668 27.754-34.887Zm2.25 3.75c11-1.188 19.13 3.063 24.383 12.754 5.2 12.402 5.45 24.906.75 37.516-7.594 12.863-17.723 15.238-30.383 7.128-6.312-6.007-9.941-13.386-10.875-22.132-1.722-11.336.903-21.465 7.875-30.387a34.972 34.972 0 0 1 8.25-4.879ZM765.504.375a367.335 367.335 0 0 0 30.754 1.875c12.394 2.125 17.27 9.25 14.629 21.383-1.922 4.172-5.047 7.05-9.375 8.629 13.957 5.37 17.582 14.75 10.875 28.133-5.176 6.152-11.801 9.152-19.88 9.003-10.75-1.039-21.5-2.039-32.253-3 7.484.34 11.363-3.16 11.625-10.503 1.098-15.137 2.223-30.27 3.375-45.391a18.528 18.528 0 0 0-1.875-5.629 106.395 106.395 0 0 1-7.875-4.5Zm21.004 5.254c11.078.457 15.699 6.207 13.875 17.254-1.95 6.422-6.32 9.426-13.125 9.004v2.25c13.312 1.886 18.691 9.39 16.129 22.508-2.875 7.5-8.246 10.378-16.13 8.628-3.284-1.183-5.042-3.558-5.25-7.128a928.182 928.182 0 0 1 4.5-52.516ZM654.484 4.125c1.11-.195 2.11.055 3 .75a108.742 108.742 0 0 1-6.75 3.379c-1.683 1.488-2.433 3.363-2.25 5.625a1323.672 1323.672 0 0 0 7.875 49.52c.305 2.246 1.43 3.87 3.375 4.874 2.993.375 5.993.5 9.004.375a67.153 67.153 0 0 0 1.5 15.758c-.043.926-.418 1.676-1.125 2.25a101.242 101.242 0 0 0-3.75-9.004c-2.293-2.894-5.293-4.398-9.004-4.5a730.347 730.347 0 0 0-43.882 7.125c-4.235.551-7.36 2.68-9.375 6.38a168.538 168.538 0 0 0-1.875 11.253 2.696 2.696 0 0 1-1.125-.75 193.379 193.379 0 0 0-3.375-16.508c11.183-4.328 17.058-12.582 17.625-24.757a269.06 269.06 0 0 0 0-28.512c.586-9.293-3.79-13.793-13.125-13.504a841.96 841.96 0 0 0 53.257-9.754Zm-24.754 9.004c4.774-.68 7.649 1.32 8.625 6.004a445.053 445.053 0 0 1 6.754 48.765 8.597 8.597 0 0 1-3.375 2.625c-9.797 2.301-19.55 3.926-29.257 4.88 3.632-6.774 5.757-14.028 6.378-21.758.29-11.012.29-22.016 0-33.012.516-2.024 1.641-3.649 3.375-4.88a47.68 47.68 0 0 1 7.5-2.624ZM866.02 7.879c.937.059 1.562.559 1.875 1.5a5751.27 5751.27 0 0 0 15.003 62.27c1.98 4.855 5.356 8.359 10.125 10.503-.375.25-.75.504-1.125.754a430.952 430.952 0 0 0-28.128-5.254c2.617-.496 4.996-1.496 7.128-3a91.345 91.345 0 0 0-3.003-21.007 306.963 306.963 0 0 0-19.5-3.75 130.26 130.26 0 0 0-9.004 16.503c-1.051 3.965.449 6.465 4.5 7.504.52.621.39 1.121-.375 1.5a162.95 162.95 0 0 0-24.004-4.504c4.441-.57 8.32-2.324 11.629-5.25 11.632-19.277 23.261-38.535 34.879-57.77Zm-4.5 17.254c2.5 7.984 4.253 15.988 5.25 24.008a115.062 115.062 0 0 1-16.5-3.375 845.988 845.988 0 0 0 11.25-20.633ZM911.027 15.379c1.868 2.207 4.118 4.082 6.754 5.629a535.413 535.413 0 0 0 46.508 13.129 9.194 9.194 0 0 0 4.125-2.25 3.4 3.4 0 0 1 1.125 1.5 107.793 107.793 0 0 1-8.254 15.004 115.217 115.217 0 0 0-.375-7.5c-.875-.875-1.746-1.75-2.625-2.63a908.329 908.329 0 0 0-16.875-5.624 1210.833 1210.833 0 0 0-15.379 53.644c1.258 4.024 4.004 6.528 8.25 7.504.91.668.91 1.293 0 1.875a478.584 478.584 0 0 0-30.754-9.379l9-.75a13.374 13.374 0 0 0 3.375-4.129 3622.528 3622.528 0 0 0 14.63-50.265c-.239-.864-.735-1.489-1.5-1.875a366.027 366.027 0 0 0-15.755-4.13c-3.593 1.095-6.593 3.095-9 6.005-.832-.918-.96-1.918-.375-3 2.387-4.274 4.762-8.524 7.125-12.758ZM565.219 19.133c.937.058 1.562.558 1.875 1.5a76.792 76.792 0 0 0 3.379 15.379l-1.125 1.125c-1.586-3.336-3.965-5.961-7.13-7.875-6.445-.266-12.445 1.113-18.003 4.125 2.203 7.226 4.328 14.48 6.379 21.758.289.695.789 1.195 1.5 1.5a702.123 702.123 0 0 0 15.375-4.875c1.597-1.829 2.597-3.954 3.004-6.38a365.93 365.93 0 0 1 4.5 15.758l-.75 1.5c-1.293-2.921-3.418-4.921-6.38-6.003a334.184 334.184 0 0 0-15 4.503 201.521 201.521 0 0 0 5.25 20.254c1.692 4.957 5.067 6.582 10.126 4.88 9.785-1.407 15.035-7.036 15.754-16.884a44.61 44.61 0 0 1 1.125 15.758l-1.125 1.125a552.453 552.453 0 0 0-41.258 11.63l-1.5-.75a23.24 23.24 0 0 0 7.129-5.255l.375-2.625a751.553 751.553 0 0 0-14.63-51.394l-1.874-1.875a91.665 91.665 0 0 0-9-1.875 2178.574 2178.574 0 0 0 38.254-10.88c1.933-.804 3.187-2.183 3.75-4.124ZM502.21 38.64c1.145.012 1.52.512 1.126 1.5-5.125 1.747-7.125 5.25-6.004 10.505a2325.574 2325.574 0 0 0 17.254 43.515 17.273 17.273 0 0 0 4.125 6.375c3.57.16 7.07.285 10.504.375a381.96 381.96 0 0 0-27.754 11.63c-.852.562-1.602.437-2.25-.376 2.98-1.605 5.355-3.855 7.125-6.75.144-2.59-.356-5.09-1.5-7.504-5.754-14.004-11.504-28.012-17.254-42.015-4.309-3.762-8.559-3.512-12.754.75a29.128 29.128 0 0 0-1.875 4.878 329.71 329.71 0 0 1 9.379 34.137c1.953 8.512 1.203 16.766-2.25 24.758-3.93 5.414-9.059 7.289-15.379 5.625-3.172-2.98-3.672-6.36-1.5-10.125 1.48-1.367 3.23-2.117 5.25-2.254a23.153 23.153 0 0 0 7.5 1.125c1.887-2.52 2.887-5.394 3.004-8.625a171.448 171.448 0 0 0-12.379-44.266c-3.265-3.296-7.02-3.796-11.25-1.503l-1.125-.75a1201.6 1201.6 0 0 0 37.504-15.38 104.57 104.57 0 0 0 10.504-5.624ZM981.54 40.14a1173.235 1173.235 0 0 0 38.257 14.63c1.762.25 3.512.125 5.25-.375a224.95 224.95 0 0 1-7.5 15.753 21.136 21.136 0 0 1-.375-6.75c-.457-2.289-1.582-4.164-3.375-5.628a64.525 64.525 0 0 0-13.504-5.625c-.863.238-1.484.738-1.875 1.5l-7.875 20.632c.305.707.8 1.207 1.5 1.5 5.535 2.602 11.289 4.102 17.25 4.5a14.979 14.979 0 0 1 3.004-2.625c.808.649.937 1.399.375 2.25-2.41 4.825-4.79 9.578-7.129 14.258a132.468 132.468 0 0 0-.375-6.754 6.92 6.92 0 0 0-1.125-1.875 567.981 567.981 0 0 0-15-6.379 128.893 128.893 0 0 0-8.254 23.258c-.285 2.121.465 3.746 2.25 4.88a43.85 43.85 0 0 0 14.254 4.874 21.859 21.859 0 0 0 5.25-1.875 64.728 64.728 0 0 1 6-5.629c.812.653.937 1.403.375 2.254a271.914 271.914 0 0 1-7.875 10.879c-1.254.5-2.496.5-3.75 0a1331.672 1331.672 0 0 0-39.758-15.758 10.913 10.913 0 0 1 6.38.375c2.163-.3 3.913-1.3 5.25-3a873.441 873.441 0 0 0 19.128-50.644c-.656-3.407-2.656-5.657-6.004-6.75-.562-.504-.816-1.13-.75-1.875ZM1056.555 70.148a696.394 696.394 0 0 0 47.257 24.012c-.374.246-.75.5-1.128.75-3.106-1.668-6.223-1.793-9.375-.375a613.61 613.61 0 0 0-25.13 47.64 9.305 9.305 0 0 0 0 5.25 34.615 34.615 0 0 0 6.376 6.005l-1.125.75a473.265 473.265 0 0 0-27.38-14.254l1.126-.75c5.054 2.793 9.062 1.793 12.004-3.004a623.745 623.745 0 0 0 22.129-45.016c-1.653-4.148-4.774-6.402-9.38-6.75-1.906-.09-3.53.535-4.874 1.875a227.754 227.754 0 0 1-24.754 35.262c-4.637 4.758-10.262 7.633-16.88 8.629-5.257-.125-9.257-2.375-12-6.754-.339-7.414 3.036-10.04 10.126-7.879 2.047 1.973 3.422 4.348 4.125 7.129 2.883.797 5.508.172 7.879-1.875 10.816-11.25 19.687-23.879 26.629-37.887.5-1.754.5-3.504 0-5.254a23.062 23.062 0 0 0-6.38-6.379c.423-.285.669-.66.755-1.125ZM423.445 75.402c.75-.066 1.371.184 1.875.75a203.148 203.148 0 0 1 8.63 12.004c-.65.813-1.4.938-2.25.375-7.126-6.574-15.126-7.824-24.005-3.75-11.61 6.594-15.984 16.473-13.129 29.633 4.286 14.793 13.914 23.922 28.88 27.387 17.113.52 25.863-7.86 26.253-25.133 1.438 4.93 2.688 9.93 3.754 15.004-9.656 10.637-21.781 16.39-36.383 17.258-20.507-1.754-31.882-12.883-34.132-33.39 1.597-17.188 10.351-29.192 26.257-36.013a103.167 103.167 0 0 1 14.25-4.125ZM1121.063 104.66a470.488 470.488 0 0 0 26.253 17.258l-1.125.75c-3.238-2.152-6.613-2.531-10.125-1.125a228.5 228.5 0 0 0-12.379 17.633c-.562.851-.433 1.601.376 2.25 7.066 3.09 12.695 7.84 16.878 14.254 4.516 12.968.391 21.847-12.375 26.636-6.496 1.125-12.5-.125-18.004-3.754a238.476 238.476 0 0 0-25.503-17.628c.246-.25.5-.504.75-.75 2.3.976 4.68 1.726 7.125 2.25 2.191-.223 3.945-1.223 5.25-3.004a1425.81 1425.81 0 0 1 24.004-36.762 27.363 27.363 0 0 0 4.128-8.629c-1.09-3.348-3.093-6.098-6.004-8.25.422-.289.668-.664.75-1.129Zm0 38.266c15.492 9.316 16.496 19.945 3 31.887-5.446 3.632-10.696 3.382-15.75-.75-1.458-1.293-2.208-2.918-2.25-4.88a19.586 19.586 0 0 1 2.624-6.75 159.39 159.39 0 0 0 12.376-19.507ZM353.684 113.664a6.33 6.33 0 0 1 3 .375 198.99 198.99 0 0 0 9.753 10.879 3.3 3.3 0 0 1-1.125 1.5c-8.539-6.578-17.417-6.953-26.628-1.125-9.805 8.074-12.68 18.203-8.63 30.387 8.13 18.382 22.009 25.757 41.634 22.132 10.738-5.347 15.238-13.976 13.503-25.882a133.051 133.051 0 0 1 5.25 15.004c-13.476 16.996-30.73 22.87-51.757 17.632-17.356-9.593-23.23-23.972-17.63-43.14 6.645-14.278 17.52-23.531 32.63-27.762ZM292.176 153.43c.804.562.93 1.312.375 2.25-3.766 3.004-4.516 6.507-2.25 10.504a1216.961 1216.961 0 0 0 33.379 38.64c4.078 2.551 7.828 2.047 11.25-1.504.75-.5 1.5-.5 2.254 0-8.2 7.04-16.325 14.168-24.383 21.383-.5-.75-.5-1.5 0-2.25 3.922-3.223 4.672-6.973 2.254-11.254-8.754-10.004-17.504-20.008-26.258-30.012a1202.226 1202.226 0 0 0-3 54.02c1.402 1.89 3.277 2.89 5.629 3.004a20.697 20.697 0 0 0 8.25-3.754l.75.75a471.054 471.054 0 0 0-24.004 21.008l-.75-.75a48.895 48.895 0 0 1 4.125-6c.5-1.254.5-2.504 0-3.754a674.072 674.072 0 0 0-34.879-40.887c-1.254-.625-2.5-1.254-3.754-1.879a38.146 38.146 0 0 0-7.875 3.754l-1.125-1.125a207.75 207.75 0 0 0 22.504-19.508c.75-.5 1.5-.5 2.25 0l-4.125 5.625c-.566 2.106-.316 4.106.75 6.004 9 10.504 18.004 21.008 27.004 31.512 1.101-17.926 2.226-35.809 3.375-53.644-4.488-5.247-9.242-5.372-14.25-.375l-.75-.75c8.2-6.481 15.95-13.485 23.254-21.008ZM1178.824 156.43c19.719-.649 34.219 7.605 43.508 24.757a89.017 89.017 0 0 1-7.504 13.508c3.008-14.37-2.242-24.5-15.75-30.386-15.258-2.313-26.633 3.316-34.133 16.879-5.468 10.777-5.468 21.527 0 32.261 7.883 10.442 17.637 12.696 29.254 6.754l1.125.75a48.708 48.708 0 0 1-13.5 9.004c-13.414-5.539-23.293-14.793-29.629-27.762-5.168-16.77-.797-30.398 13.125-40.886 4.344-2.325 8.844-3.95 13.504-4.88ZM757.254 172.938c27.348-.657 42.094 12.597 44.258 39.761-.942 18.781-9.942 31.91-27.008 39.39 33.691 15.052 42.82 39.434 27.383 73.15-15.664 22.316-36.797 29.945-63.387 22.886-30.082-11.785-41.46-33.418-34.133-64.898.867-1.5 1.992-1.75 3.375-.75-7.25 27.882 2.254 47.511 28.508 58.894 13.602 4.703 27.11 4.453 40.504-.75 11.305-5.965 17.937-15.344 19.879-28.137 4.058-19.578-1.063-36.21-15.375-49.89-6.528-4.762-13.781-7.89-21.754-9.38-.7-.89-.945-1.89-.75-3 26.375-2.5 38.504-17.007 36.379-43.515-5.047-16.672-16.301-25.926-33.754-27.762-24.457 1.872-37.086 15.125-37.883 39.766h-3c-.098-13.098 4.027-24.601 12.379-34.512 6.906-6.523 15.035-10.273 24.379-11.254ZM1238.082 191.691a313.286 313.286 0 0 0 23.254 21.383l-1.125 1.125c-3.133-3.273-6.766-4.148-10.875-2.625a673.18 673.18 0 0 0-36.383 39.39c-.5 1.75-.5 3.5 0 5.25 1.375 1.876 2.754 3.755 4.125 5.63l-1.125 1.125a311.602 311.602 0 0 0-22.879-21.758c.25-.25.504-.5.75-.75a671.187 671.187 0 0 0 7.504 3.75 14.38 14.38 0 0 0 5.25-2.625c11.379-12.379 22.75-24.758 34.129-37.137a7.841 7.841 0 0 0 1.125-3.754c-1.25-3.007-2.504-6.011-3.75-9.004Zm0 0"/><path style="stroke:none;fill-rule:evenodd;fill:#fefffe;fill-opacity:1" d="M1268.09 220.203a355.909 355.909 0 0 1 15 13.129l3.375 3.375c.52.625.39 1.125-.375 1.504-3.195-2.852-6.945-4.477-11.25-4.879a248.6 248.6 0 0 0-31.504.375 412.79 412.79 0 0 0-3.004 31.887 64.886 64.886 0 0 0 2.629 19.133c.996 2.5 2.367 4.75 4.125 6.75-.375.25-.75.503-1.125.75-10.637-7.891-15.762-18.52-15.379-31.883a363.705 363.705 0 0 1 2.625-29.637 11.378 11.378 0 0 1 3.375-1.125 1156.548 1156.548 0 0 0 30.758-2.25c2.93-1.86 2.93-3.86 0-6.004a1.7 1.7 0 0 0 .75-1.125ZM584.723 238.21h2.25a15495.64 15495.64 0 0 0-13.5 106.536h8.25v2.25h-28.504v-2.25a26.332 26.332 0 0 0 8.625-.75 7739.899 7739.899 0 0 0 11.629-92.281 194.321 194.321 0 0 1-15.004 2.25c-.196-1.11.054-2.11.75-3 9.789-1.895 18.289-6.145 25.504-12.754ZM654.484 238.21c15.7-.097 26.828 6.903 33.383 21.005 6.016 15.465 8.016 31.473 6 48.02-2.515 22.769-10.265 43.527-23.254 62.269a253.707 253.707 0 0 1-38.633 41.64c-2.69 2.106-5.69 2.856-9 2.25-3.152-2.269-3.777-5.144-1.875-8.624 17.149-7.649 31.153-19.157 42.008-34.512 9.137-12.774 15.387-26.781 18.75-42.016-12.96 17.074-29.586 22.203-49.883 15.38-13.796-7.079-21.421-18.458-22.878-34.138-2.555-21.046 2.695-39.804 15.753-56.27 8.067-8.722 17.942-13.722 29.63-15.003Zm.75 2.25c13.078.231 21.957 6.481 26.63 18.755 5.8 17.601 6.3 35.36 1.5 53.27-3.415 12.492-10.54 22.12-21.376 28.886-13.531 5.902-24.906 3.027-34.133-8.629-8.867-13.18-12.117-27.683-9.75-43.515 1.957-17.297 9.332-31.68 22.13-43.141 4.66-3.008 9.663-4.887 15-5.625ZM869.02 238.21c30 .415 48.378 15.173 55.136 44.267 3.04 31.191-10.09 52.07-39.383 62.644-26.675 5.352-47.046-3.527-61.136-26.633-10.875-25.879-6.254-48.511 13.879-67.898 9.316-7.293 19.82-11.418 31.504-12.38Zm-3 6c31.558-1.12 48.062 14.009 49.507 45.392.332 20.101-7.672 35.855-24.004 47.27-19 9.038-36.37 6.66-52.132-7.13-13.024-18.539-15.024-38.297-6-59.27 6.797-13.94 17.672-22.69 32.629-26.261ZM1300.344 254.715a251.102 251.102 0 0 0 19.504 24.758c-.25.25-.504.5-.75.75a48.895 48.895 0 0 1-6-4.125 6.95 6.95 0 0 0-4.504 0 840.36 840.36 0 0 0-33.754 25.507c17.637 2.301 35.262 4.43 52.883 6.38 2.715-1.426 4.343-3.68 4.875-6.755a87.295 87.295 0 0 0-3-7.125c.25-.375.504-.75.75-1.125a296.137 296.137 0 0 0 18.754 24.383c-.247.375-.504.75-.75 1.125a19.76 19.76 0 0 0-7.5-5.254c-.97.45-1.973.825-3 1.125a654.665 654.665 0 0 0-41.633 32.637c-1.758 4.238-1.125 8.113 1.875 11.633-.246.375-.504.75-.75 1.125a231.69 231.69 0 0 0-19.13-24.012c-.503-.75-.503-1.5 0-2.25 2.126 1.625 4.255 3.25 6.376 4.88 1.254.5 2.5.5 3.75 0a834.153 834.153 0 0 0 33.758-25.513 2047.347 2047.347 0 0 0-52.133-6.375c-3.113.739-4.735 2.739-4.88 6a58.82 58.82 0 0 1 2.63 9.004 480.032 480.032 0 0 0-19.88-25.133c.75-.5 1.5-.5 2.25 0 2.169 3.336 5.169 4.586 9 3.75 12.755-9.753 25.505-19.507 38.259-29.257 6.047-4.09 6.797-8.97 2.25-14.633.27-.512.523-1.012.75-1.5ZM160.902 283.977c.746-.024 1.246.351 1.5 1.125-3.23 4.3-2.98 8.304.75 12.003a1609.922 1609.922 0 0 0 38.258 27.008c3.418 2.946 6.918 3.196 10.5.75l3.75-3.75c.625-.515 1.125-.39 1.5.375a318.68 318.68 0 0 0-18.375 26.262c-.375-.379-.75-.754-1.125-1.129 2.242-3.187 2.867-6.566 1.875-10.125a521.918 521.918 0 0 0-34.133-24.762l-.75.75a3831.373 3831.373 0 0 0 10.13 51.77c3.023 2.789 6.152 2.914 9.374.375l3.75-3.75c.625-.516 1.125-.39 1.5.375-6.273 8.52-12.523 17.023-18.754 25.508l-.75-.375a48.647 48.647 0 0 0 3-7.504 11.981 11.981 0 0 0-1.125-2.625 878.052 878.052 0 0 0-34.129-25.133 94.16 94.16 0 0 0-12.378-7.129c-2.97.711-5.344 2.34-7.125 4.879-.75.5-1.5.5-2.25 0a292.015 292.015 0 0 0 18.003-25.137l.75 1.125c-2.308 3.207-2.683 6.582-1.125 10.13a839.172 839.172 0 0 0 34.504 24.76 968.641 968.641 0 0 0-9.75-52.519c-2.914-2.988-6.043-3.363-9.379-1.125l-4.125 4.125-1.125-1.125a170.109 170.109 0 0 0 17.254-25.132ZM130.148 293.73c3.286 1.418 5.415 3.922 6.375 7.5 2.704 12.055-2.171 17.184-14.628 15.383-2.184-.101-3.934-.976-5.25-2.629a3.342 3.342 0 0 1 1.125-1.5c8.496 1.938 13.37-1.437 14.628-10.129-.277-2.675-1.277-5.054-3-7.125.27-.511.52-1.015.75-1.5ZM1358.102 330.492c.66-.097 1.156.153 1.503.75a224.707 224.707 0 0 0 15 26.258c-.375.77-.875.895-1.5.375a15.264 15.264 0 0 0-6-5.25c-1.808-.363-3.562-.113-5.25.75a590.13 590.13 0 0 0-34.507 20.258 3934.995 3934.995 0 0 0 51.757 13.129c5.696-3.223 6.7-7.598 3.004-13.13.246-.374.5-.75.75-1.124a858.13 858.13 0 0 0 15.75 26.633c-.261.945-.765 1.195-1.5.75-2.379-5.07-6.129-6.57-11.25-4.5-13.504 7.75-27.004 15.504-40.507 23.257-5.91 3.567-6.91 8.32-3 14.254l-1.125 1.125a381.655 381.655 0 0 0-16.13-27.757c.376-.766.88-.891 1.5-.375 1.75 1.75 3.505 3.5 5.25 5.25 1.5.5 3 .5 4.505 0a763.998 763.998 0 0 0 36.003-20.258 4030.104 4030.104 0 0 0-51.757-13.88c-6.176 3.661-6.926 8.286-2.25 13.88l-1.125 1.129a968.514 968.514 0 0 0-16.13-27.762c.376-.766.88-.89 1.5-.375 1.915 4.332 5.16 6.082 9.755 5.25a2079.142 2079.142 0 0 0 45.754-26.258 7.032 7.032 0 0 0 1.128-1.875c.485-3.598.11-7.098-1.128-10.504ZM1389.61 345.496c.734.234 1.23.734 1.5 1.5-5.356 7.461-4.106 13.59 3.75 18.383 10.93.988 10.93 2.363 0 4.125-9.473.234-13.598-4.27-12.376-13.504 1.395-4.254 3.77-7.754 7.125-10.504ZM105.395 365.754c.746-.024 1.246.351 1.5 1.125-2.504 4.23-2.004 7.98 1.5 11.254a473.466 473.466 0 0 0 47.632 24.383c.875-.125 1.75-.246 2.625-.375a71.242 71.242 0 0 0 6-6.375c.813.648.938 1.398.375 2.25a336.34 336.34 0 0 0-14.629 26.257c-.246-.375-.5-.75-.75-1.125 2.204-3.898 1.954-7.523-.75-10.878a544.517 544.517 0 0 0-48.007-24.758c-3.301.547-5.805 2.297-7.5 5.254-.649.812-1.399.933-2.25.375a129.588 129.588 0 0 0 14.254-27.387Zm0 0"/><path style="stroke:none;fill-rule:evenodd;fill:#fefffe;fill-opacity:1" d="M80.637 413.02c.66-.098 1.16.152 1.504.753-2.473 4.372-1.973 8.247 1.5 11.63a649.007 649.007 0 0 1 18.375 10.124c2.207-6.793 5.832-12.672 10.879-17.629 9.851-7.027 18.976-6.148 27.378 2.625 4.637 8.86 4.387 17.614-.75 26.262a201.247 201.247 0 0 0-14.253 24.758c.406-2.977.656-5.977.75-9.004-1.645-2.894-4.02-5.02-7.125-6.379a1790.48 1790.48 0 0 0-43.508-22.133c-3.309 1.188-5.809 3.313-7.5 6.38-.625.515-1.125.39-1.5-.376a210.573 210.573 0 0 0 14.25-27.011Zm39.008 9.753c9.464.664 15.84 5.414 19.128 14.258.586 4.957-1.039 9.082-4.875 12.38-2.32.487-4.57.237-6.753-.75-7.5-4.005-15-8.005-22.5-12.005 2.8-7.187 7.8-11.812 15-13.883ZM58.137 462.54c.746-.024 1.246.35 1.5 1.124-1.336 3.586-.836 6.836 1.5 9.754a693.471 693.471 0 0 0 48.008 18.008c5.425 1.215 8.93-.91 10.5-6.38.648-.812 1.398-.937 2.25-.374a421.647 421.647 0 0 0-11.25 29.637 61.422 61.422 0 0 1-.375-8.254 8.669 8.669 0 0 0-2.625-3.375 1356.364 1356.364 0 0 0-24.004-9.38 2239.252 2239.252 0 0 0-12.004 31.137 265.891 265.891 0 0 0 25.879 9.375c3.617-1.613 6.242-4.242 7.879-7.875.5-.5 1-.5 1.5 0A422.321 422.321 0 0 0 95.64 555.57c.168-3.27-.207-6.52-1.125-9.754-1.97-2.046-4.344-3.421-7.125-4.125a4926.737 4926.737 0 0 0-45.758-16.129 7.69 7.69 0 0 0-3 1.125 41.777 41.777 0 0 0-4.504 6c-.621.516-1.121.391-1.5-.375a343.467 343.467 0 0 0 11.254-28.507c.066 2.91.191 5.91.375 9 .875.879 1.75 1.754 2.625 2.629a331.41 331.41 0 0 0 20.254 7.875 565.88 565.88 0 0 0 12-30.758c-6.989-3.543-14.364-6.293-22.13-8.254a7.226 7.226 0 0 0-3.374 1.125 41.57 41.57 0 0 0-4.5 6.004c-.625.515-1.125.39-1.5-.375a171.081 171.081 0 0 0 10.504-28.512ZM283.172 467.04h920.406v12.003c-150.777-.125-301.55 0-452.328.375 4.254 1.254 8.5 2.504 12.754 3.754 143.027.375 286.047.5 429.07.375v57.77c54.512-.25 109.024 0 163.528.75a132.14 132.14 0 0 1 2.253 6.378c-55.261.375-110.52.5-165.78.375v3c55.51-.125 111.019 0 166.53.375a335.501 335.501 0 0 1 12 43.89h-6v-5.25h-9.003v5.25h-9v-5.25h-9v5.25h-9.004v-5.25h-9v5.25h-9.004v-5.25h-9v5.25h-9v-5.25h-9.004v5.25h-9v-5.25h-9v5.25h-9.004v-5.25h-9v5.25h-9.004v-5.25h-9v5.25h-9v-5.25h-9.004v5.25h-9v-5.25h-10.504v10.505c60.012-.13 120.024 0 180.031.375a17.082 17.082 0 0 1 1.5 6.375h-181.53v21.008h186.03a29.392 29.392 0 0 0 1.5 6.379c-62.507.375-125.023.5-187.53.375V865.43h187.53a79.685 79.685 0 0 0-.75 6.754h-186.78v15.754h183.03a40.03 40.03 0 0 1-2.25 10.503 12.716 12.716 0 0 1-.75-6h-52.507v58.52h39.007c-.25 1.5-.503 3-.75 4.504h-165.78v7.5h162.777a11.016 11.016 0 0 1-1.5 4.879c-53.762.375-107.516.5-161.278.375v11.254h156.778a145.334 145.334 0 0 1-7.5 20.632c-49.758.375-99.52.5-149.278.375v17.254h-99.015v3.754H388.94v-3.754h-98.265v-17.254c-48.762.125-97.52 0-146.278-.375a252.248 252.248 0 0 1-8.25-20.257c51.508-.375 103.016-.504 154.528-.375v-11.254c-52.762.125-105.52 0-158.278-.375a11.066 11.066 0 0 1-1.5-4.88h159.778v-7.5c-54.262.247-108.524 0-162.778-.75a28.273 28.273 0 0 0-1.503-3.378c13.253-.375 26.503-.5 39.757-.375v-58.52h-53.257a24.52 24.52 0 0 1-.375 6c-.825-3.41-1.7-6.789-2.625-10.125 60.257-.379 120.52-.504 180.78-.379v-15.753h-183.78a77.947 77.947 0 0 1-.75-6.754h184.53V635.852c-61.515.25-123.023 0-184.53-.75.46-1.907.96-3.782 1.5-5.63 61.007-.374 122.02-.5 183.03-.374V608.09h-178.53c.152-2.266.402-4.516.75-6.75h177.78v-10.504h-7.503v5.25h-9.75v-5.25h-8.254v5.25h-9.75v-5.25h-8.25v5.25h-9.754v-5.25h-8.25v5.25h-9.754v-5.25h-8.25v5.25h-9.75v-5.25h-8.254v5.25h-9.75v-5.25h-8.25v5.25h-9.004v-5.25h-9v5.25h-9.004v-5.25h-9v5.25h-9v-5.25h-9.003v5.25a15.83 15.83 0 0 1-6.75-.75 2161.548 2161.548 0 0 1 12-43.516h164.28v-3c-54.26.25-108.523 0-162.777-.75.809-2.125 1.559-4.25 2.25-6.379 53.508-.375 107.016-.5 160.528-.375v-57.77c143.023.126 286.047 0 429.07-.374 4.5-1.25 9-2.5 13.504-3.754-150.027-.375-300.05-.5-450.078-.375v-12.004ZM741.5 491.8a60920.168 60920.168 0 0 1 367.563 102.41c-243.793.5-487.583.5-731.376 0A186958.055 186958.055 0 0 0 741.5 491.8Zm-441.074.75c128.27-.124 256.543 0 384.816.376-106.52 30.008-213.039 60.02-319.554 90.031-21.754.375-43.508.5-65.262.375v-90.781Zm498.082.75c128.402-.75 256.918-1 385.566-.75v91.532c-21.754.125-43.508 0-65.262-.375a76528.568 76528.568 0 0 0-320.304-90.406Zm-57.758 8.25a883.73 883.73 0 0 1 54.758 14.634 126.148 126.148 0 0 1-21.38 11.629c-8.015-15.829-20.898-22.208-38.628-19.133-10.863 2.86-18.488 9.484-22.879 19.882a178.168 178.168 0 0 1-21.379-12.003c16.57-5.016 33.074-10.016 49.508-15.008Zm-52.508 15.009c.813.09 1.313.59 1.5 1.5-2.23 9.238-1.98 18.363.75 27.382-.832.48-1.707.856-2.625 1.13-1.957-2.098-3.207-4.598-3.754-7.505a84.935 84.935 0 0 0-1.125-11.254 110.997 110.997 0 0 1-10.5-6.378 121.21 121.21 0 0 0 15.754-4.875Zm108.016.75c.18-.45.554-.7 1.125-.75a323.96 323.96 0 0 0 16.879 4.875 78.7 78.7 0 0 1-10.875 6.379c.297 6.343-.946 12.347-3.754 18.003-1.41 1.075-2.535.825-3.375-.75 2.988-9.347 2.988-18.601 0-27.757Zm-57.758.75c12.121-1.38 20.254 3.62 24.379 15.004.973 14.039-5.524 22.042-19.504 24.007-16.469-2.953-22.469-12.457-18.004-28.508 3.2-5.085 7.574-8.585 13.129-10.503Zm77.262 3.75a68794.725 68794.725 0 0 0 216.785 61.898c-46.258.5-92.512.5-138.774 0a29.708 29.708 0 0 1-3.75-4.125 80.352 80.352 0 0 0 3.75-9.754c-.378-1.191-1.128-2.066-2.25-2.629a391.466 391.466 0 0 1-13.875-8.625 98.022 98.022 0 0 0-1.125-12.004 297.75 297.75 0 0 1-12.378 6.75 48.297 48.297 0 0 0-4.5-6.75c-2.872 3.375-5.754 6.75-8.625 10.125-.75.504-1.5.504-2.25 0 2.69-7.633 2.82-15.261.375-22.883-2.754 2.254-5.5 4.504-8.254 6.754-.18 13.676-6.43 23.43-18.754 29.262-.582-1.086-.457-2.086.375-3.004 7.531-4.668 11.914-11.418 13.129-20.254a60.538 60.538 0 0 0 0-13.508c-.114-1.964-.735-3.714-1.875-5.25a62.391 62.391 0 0 1-11.254 6.375c-.434 7.563-2.813 14.442-7.125 20.633-1.403.88-2.528.504-3.375-1.125 5.273-10.136 6.52-20.765 3.75-31.886Zm-145.524.75c-1.441 8.91-.816 17.664 1.875 26.261a45.644 45.644 0 0 0 2.625 4.875 8.096 8.096 0 0 1-2.25 1.875c-5.492-5.836-8.117-12.84-7.875-21.008a335.125 335.125 0 0 0-13.129-6.75 135.008 135.008 0 0 1 18.754-5.253Zm-18.754 5.254a72.6 72.6 0 0 0 .375 23.257c2.313 7.059 6.567 12.559 12.754 16.504.5.754.5 1.504 0 2.254-12.457-6.09-19.082-16.094-19.879-30.012a43.301 43.301 0 0 0-7.504-6.004c-1.906 7.227-1.906 14.481 0 21.758l-.75 1.5-9.75-10.5-4.875 6.75a270.346 270.346 0 0 0-11.628-6.75 185.268 185.268 0 0 1-2.25 12.754c-5.25 3.375-10.5 6.75-15.75 10.13l4.5 10.503-3.75 3.75c-46.262.5-92.516.5-138.774 0a29212.755 29212.755 0 0 1 197.281-55.894Zm64.512 27.007c2.55 1.418 4.8 3.293 6.75 5.63 14.176 8.71 28.176 8.46 42.008-.75 1.64-1.645 3.27-3.27 4.875-4.88a2.572 2.572 0 0 1 1.875 1.125c-5.129 6.442-11.633 10.82-19.504 13.133-5.89-1.98-11.77-1.98-17.625 0a30.598 30.598 0 0 1-10.879-4.879c-2.75-2.75-5.5-5.5-8.25-8.254.418-.285.668-.66.75-1.125Zm-569.348.75h3.75v32.262h-3.75V555.57Zm37.508 0h3.75v32.262h-3.75V555.57Zm39.008 0h3v32.262h-3V555.57Zm38.254 0h3.75v32.262h-3.75V555.57Zm521.34 18.758c8.453 2.606 12.824-.394 13.125-9.004-1.828-3.941-4.95-5.945-9.375-6-10.824 1.196-14.45 6.95-10.88 17.254 1.376 3.379 3.755 5.754 7.13 7.129-26.254.5-52.512.5-78.766 0 8.89-5.879 10.39-13.129 4.504-21.758-5.973-3.8-11.598-3.426-16.879 1.125-1.84 10.031 2.285 13.785 12.375 11.254-4.258 2.934-8.633 2.934-13.125 0-1.578 1.574-3.203 3.203-4.875 4.879-5.847 2.969-11.222 2.344-16.129-1.879-2.105-7.031.52-11.035 7.875-12.004 5.004.125 7.13 2.625 6.375 7.504-1.62 2.719-3.996 3.594-7.125 2.625-2.125-2.621-1.5-4.496 1.875-5.625 1.106.3 2.106.8 3 1.5.59-1.45.215-2.578-1.125-3.379-7.172-1.078-9.8 1.797-7.875 8.63 6.336 3.683 11.711 2.433 16.13-3.75-4.247-7.884-2.247-13.509 6-16.884 6.593-1.082 12.343.668 17.253 5.254a180.707 180.707 0 0 0 14.25 13.504 48.85 48.85 0 0 0 6.754 3.375c.883 1.227.883 2.48 0 3.754 6.48.746 12.98.996 19.5.75a7.409 7.409 0 0 1 .75-4.504c7.715-3.828 14.465-8.957 20.254-15.379 7.023-5.695 14.77-6.945 23.254-3.75 3.633 4.414 3.879 9.04.75 13.88 3.469 5.034 8.215 6.91 14.254 5.624 4.05-3.8 3.804-7.3-.75-10.504-2.004-.5-4-.5-6 0-1.367 3.489-.617 4.114 2.25 1.88 3.644.956 4.394 2.831 2.25 5.624-5.918 1.086-8.29-1.289-7.125-7.125 5.129-4.238 9.886-3.738 14.25 1.5 1.84 7.563-1.29 11.313-9.375 11.254a17.818 17.818 0 0 1-6-1.125 63.257 63.257 0 0 0-6.004-5.629c-3.23 2.07-6.735 2.695-10.5 1.875-1.082-.281-1.832-.906-2.25-1.875Zm438.824-18.758h3.75v32.262h-3.75V555.57Zm38.254 0h3.75v32.262h-3.75V555.57Zm39.008 0h3.75v32.262h-3.75V555.57Zm37.508 0h3.75v32.262h-3.75V555.57ZM300.426 590.082h2.25v6.754h7.5v-6.754h10.504v6.754h7.5v-6.754h10.504v6.754h7.5v-6.754a9.81 9.81 0 0 1 5.25.754 86.997 86.997 0 0 0 3.75 8.25c-18.247.75-36.5 1-54.758.75v-9.754Zm832.64 0h3.75v6.754h7.5v-6.754h10.504v6.754h7.5v-6.754h10.504v6.754h7.5v-6.754h3.75v9.754c-18.504.125-37.012 0-55.508-.375a54.286 54.286 0 0 0 4.5-9.379Zm-832.64 16.508h66.762v23.258h-66.762V606.59Zm75.762 0h731.375v23.258H376.187V606.59Zm740.375 0h67.511v23.258h-67.512V606.59Zm-816.137 30.012h68.262V865.43h747.125V636.602h68.261v230.332h-5.25v-4.504c-3.512.129-7.015 0-10.504-.375a45.205 45.205 0 0 1 8.254-.375 694.366 694.366 0 0 1 0-51.02h-8.254c.832 15.988.961 32 .375 48.02a494.444 494.444 0 0 0-1.5-36.762c-6.066-10.215-14.445-12.582-25.129-7.129-3.406 2.895-5.527 6.527-6.375 10.879-.246 8.5-.504 17.008-.75 25.508a392.61 392.61 0 0 1 .375-40.516h-8.25a526.664 526.664 0 0 1 0 51.02c2.758-.13 5.512 0 8.25.375a73.097 73.097 0 0 1-10.504.375v4.504H358.934v-4.504h-10.5c.125-12.754 0-25.508-.375-38.262-5.204-12.164-13.832-15.285-25.88-9.379-2.91 2.2-4.784 5.07-5.624 8.629-.375 13-.5 26.004-.375 39.012h-11.254v4.504h-4.5V636.602Zm77.262 1.5h72.761v2.25h-72.762v-2.25Zm131.273 0h72.762v2.25H508.96v-2.25Zm131.273 0h72.762v2.25h-72.762v-2.25Zm131.27 0h72.762v2.25h-72.762v-2.25Zm131.273 0h72.762v2.25h-72.762v-2.25Zm131.274 0h72.762v2.25h-72.762v-2.25Zm-654.113 4.5a661.94 661.94 0 0 1 31.507.375c1 .75 1 1.5 0 2.25a328.537 328.537 0 0 1-31.507 0c-.887-.856-.887-1.735 0-2.625Zm36.007 0H448.2v3.003h-32.254v-3.003Zm95.266 0c10.504-.125 21.008 0 31.504.375 1 .75 1 1.5 0 2.25-10.5.503-21.004.503-31.504 0-.887-.856-.887-1.735 0-2.625Zm36.008 0h32.254v3.003h-32.254v-3.003Zm95.265 0c10.504-.125 21.004 0 31.504.375 1 .75 1 1.5 0 2.25-10.5.503-21.004.503-31.504 0-.89-.856-.89-1.735 0-2.625Zm36.004 0h32.258v3.003h-32.258v-3.003Zm95.266 0c10.504-.125 21.004 0 31.508.375.996.75.996 1.5 0 2.25a328.537 328.537 0 0 1-31.508 0c-.883-.856-.883-1.735 0-2.625Zm36.008 0h32.254v3.003h-32.254v-3.003Zm95.265 0c10.5-.125 21.004 0 31.504.375 1 .75 1 1.5 0 2.25-10.5.503-21.004.503-31.504 0-.886-.856-.886-1.735 0-2.625Zm36.008 0h32.254v3.003h-32.254v-3.003Zm95.266 0c10.515-.25 21.015 0 31.504.75.156.441.406.816.75 1.125-10.637 1.238-21.387 1.488-32.254.75-.887-.856-.887-1.735 0-2.625Zm36.004 0h32.257v3.003h-32.257v-3.003Zm-688.614 5.253c.934.625 1.434 1.625 1.5 3l-.75 3a12.57 12.57 0 0 1-.75-6Zm3 0h2.25v6h-2.25v-6Zm4.5 0h3.75v6h-3.75v-6Zm5.25 0h3.75v6h-3.75v-6Zm5.25 0h2.25v6h-2.25v-6Zm4.5 0c.938.625 1.438 1.625 1.504 3-.25 1-.504 2-.75 3a12.62 12.62 0 0 1-.754-6Zm14.254 0c.938.625 1.438 1.625 1.5 3l-.75 3a12.667 12.667 0 0 1-.75-6Zm3 0h2.25v6h-2.25v-6Zm3.75 0h3.754v6h-3.754v-6Zm6.004 0h3.75v6h-3.75v-6Zm5.25 0h2.25v6h-2.25v-6Zm76.512 0c.937.625 1.437 1.625 1.5 3l-.75 3a12.667 12.667 0 0 1-.75-6Zm3 0h2.25v6h-2.25v-6Zm4.504 0h3.75v6h-3.75v-6Zm5.25 0h3.75v6h-3.75v-6Zm5.25 0h2.25v6h-2.25v-6Zm4.5 0c.937.625 1.437 1.625 1.5 3l-.75 3a12.667 12.667 0 0 1-.75-6Zm14.254 0c.933.625 1.437 1.625 1.5 3l-.75 3a12.667 12.667 0 0 1-.75-6Zm3 0h2.25v6h-2.25v-6Zm3.75 0h3.75v6h-3.75v-6Zm6 0h3.75v6h-3.75v-6Zm5.254 0h2.25v6h-2.25v-6Zm76.511 0c.934.625 1.438 1.625 1.5 3l-.75 3a12.667 12.667 0 0 1-.75-6Zm3 0h2.25v6h-2.25v-6Zm4.5 0h3.75v6h-3.75v-6Zm5.25 0h3.754v6h-3.754v-6Zm5.254 0h2.25v6h-2.25v-6Zm4.5 0c.934.625 1.438 1.625 1.5 3l-.75 3a12.667 12.667 0 0 1-.75-6Zm14.25 0c.938.625 1.438 1.625 1.5 3-.246 1-.5 2-.75 3a12.667 12.667 0 0 1-.75-6Zm3.004 0h2.25v6h-2.25v-6Zm3.75 0h3.75v6h-3.75v-6Zm6 0h3.75v6h-3.75v-6Zm5.25 0h2.25v6h-2.25v-6Zm76.512 0c.941.625 1.433 1.625 1.504 3-.25 1-.504 2-.75 3a12.669 12.669 0 0 1-.754-6Zm3.004 0h2.25v6h-2.25v-6Zm4.5 0h3.75v6h-3.75v-6Zm5.25 0h3.75v6h-3.75v-6Zm5.25 0h2.25v6h-2.25v-6Zm4.5 0c.937.625 1.433 1.625 1.504 3-.25 1-.504 2-.754 3a12.716 12.716 0 0 1-.75-6Zm14.254 0c.937.625 1.433 1.625 1.5 3-.246 1-.504 2-.75 3a12.716 12.716 0 0 1-.75-6Zm3 0h2.25v6h-2.25v-6Zm3.75 0h3.754v6h-3.754v-6Zm6.004 0h3.75v6h-3.75v-6Zm5.25 0h2.25v6h-2.25v-6Zm76.511 0c.938.625 1.434 1.625 1.5 3-.246 1-.5 2-.75 3a12.716 12.716 0 0 1-.75-6Zm3 0h2.25v6h-2.25v-6Zm4.5 0h3.754v6h-3.754v-6Zm5.254 0h3.75v6h-3.75v-6Zm5.25 0h2.25v6h-2.25v-6Zm4.5 0c.938.625 1.434 1.625 1.5 3-.246 1-.5 2-.75 3a12.716 12.716 0 0 1-.75-6Zm14.254 0c.938.625 1.434 1.625 1.5 3-.25 1-.504 2-.75 3a12.667 12.667 0 0 1-.75-6Zm3 0h2.25v6h-2.25v-6Zm3.75 0h3.75v6h-3.75v-6Zm6 0h3.75v6h-3.75v-6Zm5.25 0h2.254v6h-2.254v-6Zm76.516 0c.937.625 1.433 1.625 1.5 3-.25 1-.504 2-.75 3a12.667 12.667 0 0 1-.75-6Zm3 0h2.25v6h-2.25v-6Zm4.5 0h3.75v6h-3.75v-6Zm5.25 0h3.754v6h-3.754v-6Zm5.254 0h2.25v6h-2.25v-6Zm4.5 0c.937.625 1.433 1.625 1.5 3-.25 1-.504 2-.75 3a12.667 12.667 0 0 1-.75-6Zm14.25 0c.937.625 1.433 1.625 1.5 3-.246 1-.5 2-.75 3a12.716 12.716 0 0 1-.75-6Zm3.004 0h2.25v6h-2.25v-6Zm3.75 0h3.75v6h-3.75v-6Zm6 0h3.75v6h-3.75v-6Zm5.25 0h2.25v6h-2.25v-6Zm-491.332 6h2.25v8.254h-8.25v-6.754c2.152-.226 4.152-.726 6-1.5Zm13.503 0c2.73.582 5.48 1.082 8.25 1.5v6.754h-8.25v-8.254Zm117.77 0c1.434 2.391 1.934 5.141 1.5 8.254h-8.254v-6.754c2.422-.128 4.672-.632 6.754-1.5Zm12.75 0 8.254 1.5v6.754H747.5v-8.254Zm117.77 0h2.25v8.254h-9v-6.754c2.421-.128 4.671-.632 6.75-1.5Zm12.753 0c2.985.598 5.985 1.098 9 1.5v6.754h-9v-8.254Zm-421.57.75h7.5v12.754h-7.5v-12.754Zm11.25 0h7.5v12.754h-7.5v-12.754Zm17.254 0h8.25v12.754h-8.25v-12.754Zm11.25 0h8.254v12.754h-8.254v-12.754Zm485.332 0h8.254v12.754h-8.254v-12.754Zm11.254 0h8.25v12.754h-8.25v-12.754Zm17.254 0h8.25v12.754h-8.25v-12.754Zm11.25 0h8.25v12.754h-8.25v-12.754Zm-637.606 1.5c8.004-.125 16.004 0 24.004.38-4 .859-8.129 1.234-12.379 1.124-4.16-.004-8.035-.504-11.625-1.504Zm36.754 0c8.004-.125 16.008 0 24.004.38-4 .859-8.125 1.234-12.375 1.124-4.16-.004-8.035-.504-11.629-1.504Zm94.516 0c8.008-.125 16.008 0 24.004.38-4 .859-8.125 1.234-12.375 1.124-4.16-.004-8.035-.504-11.63-1.504Zm36.758 0c8.004-.125 16.008 0 24.004.38-4 .859-8.125 1.234-12.38 1.124-4.16-.004-8.034-.504-11.624-1.504Zm94.515 0c8.004-.125 16.008 0 24.004.38-4 .859-8.125 1.234-12.379 1.124-4.16-.004-8.035-.504-11.625-1.504Zm36.754 0c8.008-.125 16.008 0 24.004.38-3.996.859-8.125 1.234-12.375 1.124-4.16-.004-8.035-.504-11.629-1.504Zm94.516 0c8.004-.125 16.008 0 24.008.38-4 .859-8.125 1.234-12.38 1.124-4.163-.004-8.034-.504-11.628-1.504Zm36.758 0c8.004-.125 16.008 0 24.004.38-3.996.859-8.125 1.234-12.375 1.124-4.164-.004-8.036-.504-11.63-1.504Zm94.515 0c8.004-.125 16.008 0 24.004.38-3.996.859-8.125 1.234-12.375 1.124-4.164-.004-8.035-.504-11.629-1.504Zm36.758 0c8.004-.125 16.008 0 24.004.38-4 .859-8.125 1.234-12.379 1.124-4.164-.004-8.031-.504-11.625-1.504Zm94.516 0c8.004-.125 16.008 0 24.004.38-4 .859-8.125 1.234-12.38 1.124-4.16-.004-8.03-.504-11.624-1.504Zm36.754 0c8.004-.125 16.007 0 24.004.38-3.996.859-8.121 1.234-12.375 1.124-4.164-.004-8.036-.504-11.63-1.504Zm-483.828.754c1.382 1.332 1.882 3.082 1.5 5.25a27.733 27.733 0 0 1-9.004-.75 32.318 32.318 0 0 1 7.504-4.5Zm35.253 0a37.61 37.61 0 0 1 9 4.5 27.7 27.7 0 0 1-9 .75v-5.25Zm95.266 0c1.383 1.332 1.883 3.082 1.5 5.25-3.012.125-6.012 0-9-.375a61.772 61.772 0 0 1 7.5-4.875Zm35.258 0c3.406.7 6.406 2.2 9 4.5-2.961.743-5.965.993-9 .75v-5.25Zm95.266 0c1.378 1.332 1.882 3.082 1.5 5.25a23.357 23.357 0 0 1-8.254-.75 49.994 49.994 0 0 1 6.754-4.5Zm36.003 0a22.166 22.166 0 0 1 8.254 4.5c-2.71.743-5.453.993-8.254.75v-5.25Zm-504.832 2.25h21a24199.18 24199.18 0 0 0 2.254 192.817h-25.507c.746-64.274 1.496-128.543 2.253-192.817Zm36.004 0h21.754c.41 64.274.91 128.543 1.5 192.817h-24.754c.664-64.266 1.164-128.543 1.5-192.817Zm95.266 0h21.004a23310.34 23310.34 0 0 0 2.25 192.817H514.21c.734-64.274 1.484-128.547 2.25-192.817Zm36.008 0h21.754c.402 64.274.906 128.543 1.5 192.817h-24.754c.66-64.266 1.16-128.543 1.5-192.817Zm95.265 0h21.004c.477 64.051 1.227 128.078 2.25 192.067-8.488.75-16.988 1-25.504.75.743-64.274 1.496-128.547 2.25-192.817Zm36.004 0h21.754c.403 64.274.903 128.543 1.5 192.817h-24.754c.664-64.266 1.164-128.543 1.5-192.817Zm95.27 0h21c.469 64.051 1.219 128.078 2.254 192.067-8.485.75-16.992 1-25.508.75.738-64.274 1.488-128.547 2.254-192.817Zm36.004 0h21.754c.382 64.274.886 128.543 1.5 192.817h-24.754c.644-64.274 1.148-128.543 1.5-192.817Zm95.265 0h21.004a28841.87 28841.87 0 0 1 1.5 192.817h-24.754c.727-64.274 1.477-128.547 2.25-192.817Zm36.008 0h21.754c.383 64.274.883 128.543 1.5 192.817h-24.754c.645-64.274 1.145-128.543 1.5-192.817Zm95.266 0h21.004c.457 64.2 1.207 128.348 2.25 192.442-8.5.375-17 .504-25.504.375.71-64.274 1.46-128.547 2.25-192.817Zm36.004 0h21.754c.367 64.274.87 128.543 1.5 192.817h-24.754a45326.37 45326.37 0 0 0 1.5-192.817Zm-492.082 6.75h9.004v9.004h-9.004v-9.004Zm12.004 0h8.25v9.004h-8.25v-9.004Zm19.503 0h8.25v9.004h-8.25v-9.004Zm11.25 0h9v9.004h-9v-9.004Zm87.766 0h9v9.004h-9v-9.004Zm12 0h8.254v9.004h-8.254v-9.004Zm19.504 0h8.254v9.004H747.5v-9.004Zm11.254 0h9v9.004h-9v-9.004Zm88.512 0h8.254v9.004h-8.254v-9.004Zm11.254 0h9v9.004h-9v-9.004Zm19.503 0h9v9.004h-9v-9.004Zm12 0h8.254v9.004h-8.254v-9.004Zm-433.57 4.504h8.25v8.254h-8.25v-8.254Zm11.25 0h8.25v8.254h-8.25v-8.254Zm17.254 0h8.25v8.254h-8.25v-8.254Zm11.25 0h8.254v8.254h-8.254v-8.254Zm485.332 0h8.254v8.254h-8.254v-8.254Zm11.254 0h8.25v8.254h-8.25v-8.254Zm17.254 0h8.25v8.254h-8.25v-8.254Zm11.25 0h8.25v8.254h-8.25v-8.254Zm-435.824 8.254h9.004v9h-9.004v-9Zm12.004 0h8.25v9h-8.25v-9Zm19.503 0h8.25v9h-8.25v-9Zm11.25 0h9v9h-9v-9Zm87.766 0h9v9h-9v-9Zm12 0h8.254v9h-8.254v-9Zm19.504 0h8.254v9H747.5v-9Zm11.254 0h9v9h-9v-9Zm88.512 0h8.254v9h-8.254v-9Zm11.254 0h9v9h-9v-9Zm19.503 0h9v9h-9v-9Zm12 0h8.254v9h-8.254v-9Zm-433.57 3h8.25v16.504h-8.25v-16.504Zm11.25 0h8.25v16.504h-8.25v-16.504Zm17.254 0h8.25v16.504h-8.25v-16.504Zm11.25 0h8.254v16.504h-8.254v-16.504Zm485.332 0h8.254v16.504h-8.254v-16.504Zm11.254 0h8.25v16.504h-8.25v-16.504Zm17.254 0h8.25v16.504h-8.25v-16.504Zm11.25 0h8.25v16.504h-8.25v-16.504Zm-435.824 9.754h9.004v15.754h-9.004v-15.754Zm12.004 0h8.25v15.754h-8.25v-15.754Zm19.503 0h8.25v15.754h-8.25v-15.754Zm11.25 0h9v15.754h-9v-15.754Zm87.766 0h9v15.754h-9v-15.754Zm12 0h8.254v15.754h-8.254v-15.754Zm19.504 0h8.254v15.754H747.5v-15.754Zm11.254 0h9v15.754h-9v-15.754Zm88.512 0h8.254v15.754h-8.254v-15.754Zm11.254 0h9v15.754h-9v-15.754Zm19.503 0h9v15.754h-9v-15.754Zm12 0h8.254v15.754h-8.254v-15.754Zm-435.82 13.504h52.508v15.754h-52.508v-15.754Zm525.086 0h52.508v15.754h-52.508v-15.754Zm-393.816 19.508h9.004v14.254h-9.004v-14.254Zm12.004 0h8.25v14.254h-8.25v-14.254Zm19.503 0h8.25v14.254h-8.25v-14.254Zm11.25 0h9v14.254h-9v-14.254Zm87.766 0h9v14.254h-9v-14.254Zm12 0h8.254v14.254h-8.254v-14.254Zm19.504 0h8.254v14.254H747.5v-14.254Zm11.254 0h9v14.254h-9v-14.254Zm88.512 0h8.254v14.254h-8.254v-14.254Zm11.254 0h9v14.254h-9v-14.254Zm19.503 0h9v14.254h-9v-14.254Zm12 0h8.254v14.254h-8.254v-14.254Zm-433.57 5.25h7.5v13.504h-7.5v-13.504Zm11.25 0h7.5v13.504h-7.5v-13.504Zm17.254 0h8.25v13.504h-8.25v-13.504Zm11.25 0h8.254v13.504h-8.254v-13.504Zm485.332 0h8.254v13.504h-8.254v-13.504Zm11.254 0h8.25v13.504h-8.25v-13.504Zm17.254 0h8.25v13.504h-8.25v-13.504Zm11.25 0h8.25v13.504h-8.25v-13.504Zm-435.824 12.754h9.004v7.504h-9.004v-7.504Zm12.004 0h8.25v7.504h-8.25v-7.504Zm19.503 0h8.25v7.504h-8.25v-7.504Zm11.25 0h9v7.504h-9v-7.504Zm87.766 0h9v7.504h-9v-7.504Zm12 0h8.254v7.504h-8.254v-7.504Zm19.504 0h8.254v7.504H747.5v-7.504Zm11.254 0h9v7.504h-9v-7.504Zm88.512 0h8.254v7.504h-8.254v-7.504Zm11.254 0h9v7.504h-9v-7.504Zm19.503 0h9v7.504h-9v-7.504Zm12 0h8.254v7.504h-8.254v-7.504Zm-433.57 3.754h8.25v7.5h-8.25v-7.5Zm11.25 0h8.25v7.5h-8.25v-7.5Zm17.254 0h8.25v7.5h-8.25v-7.5Zm11.25 0h8.254v7.5h-8.254v-7.5Zm485.332 0h8.254v7.5h-8.254v-7.5Zm11.254 0h8.25v7.5h-8.25v-7.5Zm17.254 0h8.25v7.5h-8.25v-7.5Zm11.25 0h8.25v7.5h-8.25v-7.5Zm-435.824 7.5h9.004v7.504h-9.004v-7.504Zm12.004 0h8.25v7.504h-8.25v-7.504Zm19.503 0h8.25v7.504h-8.25v-7.504Zm11.25 0h9v7.504h-9v-7.504Zm87.766 0h9v7.504h-9v-7.504Zm12 0h8.254v7.504h-8.254v-7.504Zm19.504 0h8.254v7.504H747.5v-7.504Zm11.254 0h9v7.504h-9v-7.504Zm88.512 0h8.254v7.504h-8.254v-7.504Zm11.254 0h9v7.504h-9v-7.504Zm19.503 0h9v7.504h-9v-7.504Zm12 0h8.254v7.504h-8.254v-7.504Zm-433.57 3.754h8.25v15.753h-8.25v-15.753Zm11.25 0h8.25v15.753h-8.25v-15.753Zm17.254 0h8.25v15.753h-8.25v-15.753Zm11.25 0h8.254v15.753h-8.254v-15.753Zm485.332 0h8.254v15.753h-8.254v-15.753Zm11.254 0h8.25v15.753h-8.25v-15.753Zm17.254 0h8.25v15.753h-8.25v-15.753Zm11.25 0h8.25v15.753h-8.25v-15.753Zm-435.824 7.5h9.004v13.507h-9.004v-13.507Zm12.004 0h8.25v13.507h-8.25v-13.507Zm19.503 0h8.25v13.507h-8.25v-13.507Zm11.25 0h9v13.507h-9v-13.507Zm87.766 0h9v13.507h-9v-13.507Zm12 0h8.254v13.507h-8.254v-13.507Zm19.504 0h8.254v13.507H747.5v-13.507Zm11.254 0h9v13.507h-9v-13.507Zm88.512 0h8.254v13.507h-8.254v-13.507Zm11.254 0h9v13.507h-9v-13.507Zm19.503 0h9v13.507h-9v-13.507Zm12 0h8.254v13.507h-8.254v-13.507Zm-435.82 15.757h52.508v15.754h-52.508v-15.754Zm525.086 0h52.508v15.754h-52.508v-15.754Zm-648.11 6a111.413 111.413 0 0 1 15.755 7.13c-9.75.503-19.504.503-29.254 0a172.614 172.614 0 0 0 13.5-7.13Zm819.891 0a641.818 641.818 0 0 1 15.75 7.13c-10 .503-20.004.503-30.004 0a95.192 95.192 0 0 0 14.254-7.13Zm-565.597 7.504h9.004v15.004h-9.004v-15.004Zm12.004 0h8.25v15.004h-8.25v-15.004Zm19.503 0h8.25v15.004h-8.25v-15.004Zm11.25 0h9v15.004h-9v-15.004Zm87.766 0h9v15.004h-9v-15.004Zm12 0h8.254v15.004h-8.254v-15.004Zm19.504 0h8.254v15.004H747.5v-15.004Zm11.254 0h9v15.004h-9v-15.004Zm88.512 0h8.254v15.004h-8.254v-15.004Zm11.254 0h9v15.004h-9v-15.004Zm19.503 0h9v15.004h-9v-15.004Zm12 0h8.254v15.004h-8.254v-15.004Zm-433.57 11.254h7.5v12.754h-7.5V805.41Zm11.25 0h7.5v12.754h-7.5V805.41Zm17.254 0h8.25v12.754h-8.25V805.41Zm11.25 0h8.254v12.754h-8.254V805.41Zm485.332 0h8.254v12.754h-8.254V805.41Zm11.254 0h8.25v12.754h-8.25V805.41Zm17.254 0h8.25v12.754h-8.25V805.41Zm11.25 0h8.25v12.754h-8.25V805.41Zm-435.824 6.754h9.004v8.25h-9.004v-8.25Zm12.004 0h8.25v8.25h-8.25v-8.25Zm19.503 0h8.25v8.25h-8.25v-8.25Zm11.25 0h9v8.25h-9v-8.25Zm87.766 0h9v8.25h-9v-8.25Zm12 0h8.254v8.25h-8.254v-8.25Zm19.504 0h8.254v8.25H747.5v-8.25Zm11.254 0h9v8.25h-9v-8.25Zm88.512 0h8.254v8.25h-8.254v-8.25Zm11.254 0h9v8.25h-9v-8.25Zm19.503 0h9v8.25h-9v-8.25Zm12 0h8.254v8.25h-8.254v-8.25Zm-558.843 1.5a3.71 3.71 0 0 1 2.25.375c-.73 4.305-.98 8.68-.75 13.129h12.754c.753 9.477 1.003 20.48.75 33.012H317.68v-33.012h13.5v-13.504Zm819.14.75c.825-.824 1.82-.945 3-.375a59.514 59.514 0 0 0-.75 13.129c4.598.441 8.97-.05 13.125-1.5.375 11.5.504 23.004.375 34.512h-28.504c-.129-11.508 0-23.012.375-34.512 4.157 1.45 8.528 1.941 13.13 1.5.238-4.398-.008-8.645-.75-12.754Zm-693.867 6.75h8.25v8.254h-8.25v-8.254Zm11.25 0h8.25v8.254h-8.25v-8.254Zm17.254 0h8.25v8.254h-8.25v-8.254Zm11.25 0h8.254v8.254h-8.254v-8.254Zm485.332 0h8.254v8.254h-8.254v-8.254Zm11.254 0h8.25v8.254h-8.25v-8.254Zm17.254 0h8.25v8.254h-8.25v-8.254Zm11.25 0h8.25v8.254h-8.25v-8.254Zm-435.824 2.254h9.004v8.25h-9.004v-8.25Zm12.004 0h8.25v8.25h-8.25v-8.25Zm19.503 0h8.25v8.25h-8.25v-8.25Zm11.25 0h9v8.25h-9v-8.25Zm87.766 0h9v8.25h-9v-8.25Zm12 0h8.254v8.25h-8.254v-8.25Zm19.504 0h8.254v8.25H747.5v-8.25Zm11.254 0h9v8.25h-9v-8.25Zm88.512 0h8.254v8.25h-8.254v-8.25Zm11.254 0h9v8.25h-9v-8.25Zm19.503 0h9v8.25h-9v-8.25Zm12 0h8.254v8.25h-8.254v-8.25Zm-433.57 9h8.25v16.508h-8.25v-16.508Zm11.25 0h8.25v16.508h-8.25v-16.508Zm17.254 0h8.25v16.508h-8.25v-16.508Zm11.25 0h8.254v16.508h-8.254v-16.508Zm485.332 0h8.254v16.508h-8.254v-16.508Zm11.254 0h8.25v16.508h-8.25v-16.508Zm17.254 0h8.25v16.508h-8.25v-16.508Zm11.25 0h8.25v16.508h-8.25v-16.508Zm-435.824 2.254h9.004v13.504h-9.004v-13.504Zm12.004 0h8.25v13.504h-8.25v-13.504Zm19.503 0h8.25v13.504h-8.25v-13.504Zm11.25 0h9v13.504h-9v-13.504Zm87.766 0h9v13.504h-9v-13.504Zm12 0h8.254v13.504h-8.254v-13.504Zm19.504 0h8.254v13.504H747.5v-13.504Zm11.254 0h9v13.504h-9v-13.504Zm88.512 0h8.254v13.504h-8.254v-13.504Zm11.254 0h9v13.504h-9v-13.504Zm19.503 0h9v13.504h-9v-13.504Zm12 0h8.254v13.504h-8.254v-13.504Zm-510.086 19.504a331.2 331.2 0 0 1 31.508.754c-5.254.246-10.504.5-15.754.75-5.527 0-10.777-.504-15.753-1.504Zm36.758 0c10.266-.246 20.516 0 30.754.754-5.125.246-10.25.5-15.375.75-5.402 0-10.527-.504-15.379-1.504Zm94.516 0c10.516-.246 21.016 0 31.504.754-5.25.246-10.5.5-15.75.75-5.528 0-10.778-.504-15.754-1.504Zm36.758 0c10.261-.246 20.515 0 30.754.754-5.125.246-10.254.5-15.38.75-5.402 0-10.527-.504-15.374-1.504Zm94.515 0c10.512-.246 21.016 0 31.504.754-5.25.246-10.5.5-15.754.75-5.523 0-10.777-.504-15.75-1.504Zm36.754 0c10.266-.246 20.516 0 30.758.754-5.129.246-10.254.5-15.379.75-5.402 0-10.527-.504-15.379-1.504Zm94.516 0c10.52-.246 21.02 0 31.508.754-5.254.246-10.504.5-15.754.75-5.528 0-10.781-.504-15.754-1.504Zm36.758 0c10.261-.246 20.515 0 30.754.754-5.121.246-10.254.5-15.375.75-5.403 0-10.528-.504-15.38-1.504Zm94.515 0c10.5-.125 21.004 0 31.504.375-5.258.863-10.629 1.238-16.125 1.129-5.402 0-10.527-.504-15.379-1.504Zm36.758 0c10.262-.246 20.516 0 30.754.754-5.125.246-10.254.5-15.379.75-5.398 0-10.523-.504-15.375-1.504Zm94.516 0c10.5-.125 21.004 0 31.504.375-5.258.863-10.63 1.238-16.13 1.129-5.398 0-10.523-.504-15.374-1.504Zm36.754 0c10.261-.246 20.515 0 30.757.754-5.124.246-10.257.5-15.378.75-5.403 0-10.524-.504-15.38-1.504Zm-696.118 3.004h73.512v3.75h-73.512v-3.75Zm131.274 0h73.512v3.75H508.21v-3.75Zm131.273 0h73.512v3.75h-73.512v-3.75Zm131.27 0h73.512v3.75h-73.512v-3.75Zm131.273 0h73.512v3.75h-73.512v-3.75Zm131.274 0h73.512v3.75H1033.3v-3.75Zm-715.621 5.25h28.504v4.504H317.68v-4.504Zm819.886 0h28.504v4.504h-28.504v-4.504Zm-837.14 9.754h6.75v15.004h-6.75v-15.004Zm17.254 0h30.754v15.004H317.68v-15.004Zm41.254 0h767.382v15.004H358.934v-15.004Zm777.882 0h31.504v15.004h-31.504v-15.004Zm42.008 0h5.25v15.004h-5.25v-15.004ZM300.426 891.69h61.512v88.532h-61.512V891.69Zm822.137 0h61.511v88.532h-61.512V891.69Zm-952.66.75h51.011v7.504h-51.012v-7.504Zm54.761 0h53.258v58.52h-53.258v-58.52Zm57.008 0h9.004v7.504h-9.004v-7.504Zm911.402 0h12.004v7.504h-12.004v-7.504Zm15.754 0h52.508v58.52h-52.508v-58.52Zm56.258 0h51.762v7.504h-51.762v-7.504Zm-896.399 1.5h97.516a76.761 76.761 0 0 1 1.875 10.504c-4.605.93-9.234 1.938-13.875 3a67.206 67.206 0 0 1-7.504-5.625c-26.004-.375-52.008-.504-78.012-.375v-7.504Zm102.766 0h21.004l-2.25 10.504a108.212 108.212 0 0 0-16.504-.75 138.322 138.322 0 0 0-2.25-9.754Zm27.004 0c32.512-.246 65.016 0 97.52.75a41.99 41.99 0 0 1 3 10.504 67.54 67.54 0 0 0-13.13 2.25c-3.218-.96-5.843-2.836-7.874-5.625a1251.643 1251.643 0 0 0-61.512 0c-2.016 2.657-4.516 4.532-7.5 5.625a79.239 79.239 0 0 0-13.504-2.25 62.402 62.402 0 0 1 3-11.254Zm102.77.75c7.132-.988 14.382-.988 21.753 0-.93 3.168-1.93 6.297-3 9.38a68.368 68.368 0 0 0-15.753.374c-.668-3.43-1.664-6.683-3-9.754Zm27.003-.75h98.266a82.828 82.828 0 0 0 3 10.504c-4.973.961-9.848 2.215-14.625 3.75a42.897 42.897 0 0 1-7.129-6.375c-20.5-.504-41.004-.504-61.508 0a30.36 30.36 0 0 1-7.5 6.375c-4.511-1.25-9.011-2.496-13.504-3.75a82.828 82.828 0 0 0 3-10.504Zm103.52 0c7.254-.129 14.504 0 21.75.375a61.944 61.944 0 0 0-3 10.13 87.825 87.825 0 0 0-15.75-.376 77.954 77.954 0 0 1-3-10.129Zm27.004 0c32.5-.129 65.012 0 97.516.375a50.2 50.2 0 0 1 3 10.88 50.834 50.834 0 0 0-14.63 3 43.185 43.185 0 0 1-7.124-6.376c-20.5-.504-41.008-.504-61.512 0a43.028 43.028 0 0 1-7.125 6.375 56.314 56.314 0 0 0-13.125-3 71.288 71.288 0 0 1 3-11.254Zm103.516 0h21.003a61.563 61.563 0 0 1-3 10.13 68.368 68.368 0 0 0-15.753.374c-.75-3.504-1.5-7.008-2.25-10.504Zm26.253 0c32.758-.246 65.516 0 98.266.75l3.004 9.754a163.179 163.179 0 0 0-15.004 3.75c-2.86-1.98-5.61-4.11-8.25-6.375a1221.312 1221.312 0 0 0-60.762 0 137.377 137.377 0 0 1-7.125 6.375 102.364 102.364 0 0 0-13.129-3.375 53.971 53.971 0 0 0 3-10.879Zm103.52 0c7.254-.129 14.508 0 21.754.375a197.3 197.3 0 0 0-3 9.38c-4.621.218-9.25.464-13.879.75-.996-.188-1.746-.692-2.25-1.5-.879-3.016-1.758-6.02-2.625-9.005Zm27.004 0h96.765v7.504c-26.007-.129-52.007 0-78.011.375a3155.712 3155.712 0 0 1-7.88 6.375 79.303 79.303 0 0 0-13.874-3c.996-3.75 2-7.504 3-11.254Zm-849.145 11.254h51.012v7.504h-51.012v-7.504Zm111.77 0h9.004v7.504h-9.004v-7.504Zm36.758 0h29.254v38.266H318.43v-38.266Zm819.886 0h29.254v38.266h-29.254v-38.266Zm54.758 0h12.004v7.504h-12.004v-7.504Zm72.012 0h51.762v7.504h-51.762v-7.504Zm-896.399 1.5c25.254-.125 50.508 0 75.762.375 3.363 1.547 4.613 4.172 3.75 7.88h-79.512v-8.255Zm150.024 0c19.008-.125 38.008 0 57.012.375 2.047 2.176 2.797 4.801 2.25 7.88H514.96a13.84 13.84 0 0 1 .375-4.5 23.468 23.468 0 0 0 3.375-3.755Zm129.773 0c19.004-.125 38.008 0 57.008.375 2.664 1.946 3.664 4.57 3.004 7.88h-63.012c-.632-3.415.368-6.169 3-8.255Zm129.774 0c19.008-.125 38.008 0 57.008.375 2.664 1.946 3.66 4.57 3 7.88h-63.012c-.629-3.415.367-6.169 3.004-8.255Zm129.77 0c19.007-.125 38.007 0 57.011.375 1.125 1.125 2.25 2.25 3.375 3.38.375 1.476.492 2.976.375 4.5h-63.012c-.515-3.188.235-5.942 2.25-8.255Zm131.273 0h76.512v8.254h-80.262c-.121-1.523 0-3.023.375-4.5a23.468 23.468 0 0 0 3.375-3.754Zm-563.348 2.25a109.542 109.542 0 0 1 33.008 4.504c.75 22.004 1 44.012.75 66.024h-3c.25-21.016 0-42.024-.75-63.024-16.742-4.965-33.496-4.965-50.258 0v63.024h-2.25c-.25-22.012 0-44.02.75-66.024 7.195-2.238 14.45-3.738 21.75-4.504Zm130.524 0a102.084 102.084 0 0 1 32.257 4.504c.75 22.004.996 44.012.75 66.024h-2.254v-63.024c-16.753-4.965-33.507-4.965-50.257 0-.75 21-1 42.008-.75 63.024h-3c-.25-22.012 0-44.02.75-66.024a135.053 135.053 0 0 1 22.504-4.504Zm130.523 0a108.139 108.139 0 0 1 32.254 4.504c.75 22.004 1 44.012.75 66.024h-3c.246-21.016 0-42.024-.75-63.024-16.742-4.965-33.496-4.965-50.258 0v63.024h-2.25c-.25-22.012 0-44.02.75-66.024 7.45-2.273 14.95-3.773 22.504-4.504Zm129.77 0a118.246 118.246 0 0 1 33.757 4.504v66.024h-3c.246-21.016 0-42.024-.75-63.024-16.504-5.004-33.007-5.004-49.511 0-.75 21-.996 42.008-.75 63.024h-3v-66.024a164.54 164.54 0 0 1 23.254-4.504Zm130.523 0a108.103 108.103 0 0 1 32.254 4.504c.75 22.004 1 44.012.75 66.024h-2.25v-63.024c-16.766-4.965-33.516-4.965-50.258 0-.75 21-.996 42.008-.75 63.024h-3c-.246-22.012 0-44.02.75-66.024a135.053 135.053 0 0 1 22.504-4.504Zm-827.39 9.004h51.011v7.504h-51.012v-7.504Zm111.769 0h9.004v7.504h-9.004v-7.504Zm911.402 0h12.004v7.504h-12.004v-7.504Zm72.012 0h51.762v7.504h-51.762v-7.504Zm-896.399 1.5H448.2v8.254h-79.512v-8.254Zm146.274 0h63.012v8.254H514.96v-8.254Zm130.523 0h63.012v8.254h-63.012v-8.254Zm129.77 0h63.012v8.254h-63.012v-8.254Zm130.523 0h63.012v8.254h-63.012v-8.254Zm129.774 0h80.262v8.254h-80.262v-8.254Zm-865.649 10.504h51.012v8.254h-51.012v-8.254Zm111.77 0h9.004v8.254h-9.004v-8.254Zm911.402 0h12.004v8.254h-12.004v-8.254Zm72.012 0h51.762v8.254h-51.762v-8.254Zm-896.399 3.004H448.2v7.5h-79.512v-7.5Zm146.274 0h63.012v7.5H514.96v-7.5Zm130.523 0h63.012v7.5h-63.012v-7.5Zm129.77 0h63.012v7.5h-63.012v-7.5Zm130.523 0h63.012v7.5h-63.012v-7.5Zm129.774 0h80.262v7.5h-80.262v-7.5Zm-865.649 9.75h51.012v8.254h-51.012v-8.254Zm111.77 0h9.004v8.254h-9.004v-8.254Zm911.402 0h12.004v8.254h-12.004v-8.254Zm72.012 0h51.762v8.254h-51.762v-8.254Zm-896.399 3.004H448.2v8.25h-79.512v-8.25Zm146.274 0h63.012v8.25H514.96v-8.25Zm130.523 0h63.012v8.25h-63.012v-8.25Zm129.77 0h63.012v8.25h-63.012v-8.25Zm130.523 0h63.012v8.25h-63.012v-8.25Zm129.774 0h80.262v8.25h-80.262v-8.25Zm-666.863 12.754h79.511v8.254h-79.512v-8.254Zm146.273 0h63.012v8.254H514.96v-8.254Zm130.523 0h63.012v8.254h-63.012v-8.254Zm129.77 0h63.012v8.254h-63.012v-8.254Zm130.523 0h63.012v8.254h-63.012v-8.254Zm129.774 0h80.262v8.254h-80.262v-8.254Zm-666.863 13.504h79.511v5.254h-79.512v-5.254Zm146.273 0h63.012v5.254H514.96v-5.254Zm130.523 0h63.012v5.254h-63.012v-5.254Zm129.77 0h63.012v5.254h-63.012v-5.254Zm130.523 0h63.012v5.254h-63.012v-5.254Zm129.774 0h80.262v5.254h-80.262v-5.254Zm-597.852 15.004h611.352v6.004H437.699v-6.004Zm-21.004 9.754h653.36v6.003h-653.36v-6.003Zm-13.504 9.753h680.368v6.004H403.19v-6.004ZM1437.617 491.05c.817.09 1.313.59 1.5 1.5a151.881 151.881 0 0 0 9 26.634c-2.082-.282-3.586-1.532-4.5-3.75-.996-.5-2.004-.5-3 0a186.19 186.19 0 0 0-26.254 22.507 228.417 228.417 0 0 0 34.504 2.25c1.781-1.98 2.785-4.355 3.004-7.129a177.946 177.946 0 0 0 8.25 22.883c-.855.563-1.605.438-2.25-.375-2.43-5.054-6.43-7.933-12.004-8.625a3654.714 3654.714 0 0 1-51.758-4.504c-8.062-.332-13.937-3.957-17.629-10.879-2.617-10.878 1.508-15.503 12.38-13.878 4.425 7.086 2.421 10.59-6 10.504-1.653 2.285-1.15 4.285 1.5 6 4.515 2.253 9.261 3.253 14.25 3.003a442.624 442.624 0 0 0 38.632-36.39c.375-3.242.504-6.492.375-9.75Zm0 0"/><path style="stroke:none;fill-rule:evenodd;fill:#fefffe;fill-opacity:1" d="M742.25 494.05a149750.042 149750.042 0 0 1 315.805 89.657c.84.629 1.34 1.504 1.5 2.625-.258 1.512-.504 3.012-.75 4.504-210.285.125-420.575 0-630.86-.375-.96-2.098-.96-4.223 0-6.379a140624.259 140624.259 0 0 0 314.305-90.031Zm-1.5 7.5a51764.992 51764.992 0 0 1-49.508 15.009 178.168 178.168 0 0 0 21.38 12.004c4.39-10.399 12.015-17.024 22.878-19.883 17.73-3.075 30.613 3.304 38.629 19.132a126.148 126.148 0 0 0 21.379-11.628 883.73 883.73 0 0 0-54.758-14.633Zm-52.508 15.009a121.21 121.21 0 0 1-15.754 4.875 110.997 110.997 0 0 0 10.5 6.379c.625 3.726 1 7.476 1.125 11.253.547 2.907 1.797 5.407 3.754 7.504a12.185 12.185 0 0 0 2.625-1.129c-2.73-9.02-2.98-18.144-.75-27.382-.187-.91-.687-1.41-1.5-1.5Zm108.016.75c2.988 9.156 2.988 18.41 0 27.757.84 1.575 1.965 1.825 3.375.75 2.808-5.656 4.05-11.66 3.754-18.004a78.7 78.7 0 0 0 10.875-6.378 323.96 323.96 0 0 1-16.88-4.875c-.57.05-.944.3-1.124.75Zm-57.758.75c-5.555 1.918-9.93 5.418-13.129 10.504-4.465 16.05 1.535 25.554 18.004 28.507 13.98-1.965 20.477-9.968 19.504-24.008-4.125-11.382-12.258-16.382-24.379-15.003Zm77.262 3.75c2.77 11.12 1.523 21.75-3.75 31.886.847 1.63 1.972 2.004 3.375 1.125 4.312-6.191 6.691-13.07 7.125-20.633a62.391 62.391 0 0 0 11.254-6.375c1.14 1.536 1.761 3.286 1.875 5.25a60.538 60.538 0 0 1 0 13.508c-1.215 8.836-5.598 15.586-13.13 20.254-.831.918-.956 1.918-.374 3.004 12.324-5.832 18.574-15.586 18.754-29.262 2.754-2.25 5.5-4.5 8.254-6.754 2.445 7.622 2.316 15.25-.375 22.883.75.504 1.5.504 2.25 0 2.87-3.375 5.753-6.75 8.625-10.125a48.297 48.297 0 0 1 4.5 6.75 297.75 297.75 0 0 0 12.378-6.75 98.022 98.022 0 0 1 1.125 12.004 391.466 391.466 0 0 0 13.875 8.625c1.122.563 1.872 1.438 2.25 2.63a80.352 80.352 0 0 1-3.75 9.753 29.708 29.708 0 0 0 3.75 4.125c46.262.5 92.516.5 138.774 0a68794.725 68794.725 0 0 1-216.785-61.898Zm-145.524.75c-1.441 8.91-.816 17.664 1.875 26.261a45.644 45.644 0 0 0 2.625 4.875 8.096 8.096 0 0 1-2.25 1.875c-5.492-5.836-8.117-12.84-7.875-21.008a335.125 335.125 0 0 0-13.129-6.75 135.008 135.008 0 0 1 18.754-5.253Zm-18.754 5.254a29212.755 29212.755 0 0 0-197.28 55.894c46.257.5 92.51.5 138.773 0l3.75-3.75c-1.5-3.504-3-7.004-4.5-10.504 5.25-3.379 10.5-6.754 15.75-10.129a185.268 185.268 0 0 0 2.25-12.754 270.346 270.346 0 0 1 11.628 6.75l4.875-6.75 9.75 10.5.75-1.5c-1.906-7.277-1.906-14.53 0-21.758a43.301 43.301 0 0 1 7.504 6.004c.797 13.918 7.422 23.922 19.88 30.012.5-.75.5-1.5 0-2.254-6.188-3.945-10.442-9.445-12.755-16.504a72.6 72.6 0 0 1-.375-23.258Zm64.512 27.007c-.082.465-.332.84-.75 1.125 2.75 2.754 5.5 5.504 8.25 8.254a30.598 30.598 0 0 0 10.879 4.88c5.855-1.981 11.734-1.981 17.625 0 7.871-2.313 14.375-6.692 19.504-13.134a2.572 2.572 0 0 0-1.875-1.125c-1.606 1.61-3.234 3.235-4.875 4.88-13.832 9.21-27.832 9.46-42.008.75-1.95-2.337-4.2-4.212-6.75-5.63Zm66.762 19.508c8.453 2.606 12.824-.394 13.125-9.004-1.828-3.941-4.95-5.945-9.375-6-10.824 1.196-14.45 6.95-10.88 17.254 1.376 3.379 3.755 5.754 7.13 7.129-26.254.5-52.512.5-78.766 0 8.89-5.879 10.39-13.129 4.504-21.758-5.973-3.8-11.598-3.426-16.879 1.125-1.84 10.031 2.285 13.785 12.375 11.254-4.258 2.934-8.633 2.934-13.125 0-1.578 1.574-3.203 3.203-4.875 4.879-5.847 2.969-11.222 2.344-16.129-1.879-2.105-7.031.52-11.035 7.875-12.004 5.004.125 7.13 2.625 6.375 7.504-1.62 2.719-3.996 3.594-7.125 2.625-2.125-2.621-1.5-4.496 1.875-5.625 1.106.3 2.106.8 3 1.5.59-1.45.215-2.578-1.125-3.379-7.172-1.078-9.8 1.797-7.875 8.63 6.336 3.683 11.711 2.433 16.13-3.75-4.247-7.884-2.247-13.509 6-16.884 6.593-1.082 12.343.668 17.253 5.254a180.707 180.707 0 0 0 14.25 13.504 48.85 48.85 0 0 0 6.754 3.375c.883 1.227.883 2.48 0 3.754 6.48.746 12.98.996 19.5.75a7.409 7.409 0 0 1 .75-4.504c7.715-3.828 14.465-8.957 20.254-15.379 7.023-5.695 14.77-6.945 23.254-3.75 3.633 4.414 3.879 9.04.75 13.88 3.469 5.034 8.215 6.91 14.254 5.624 4.05-3.8 3.804-7.3-.75-10.504-2.004-.5-4-.5-6 0-1.367 3.489-.617 4.114 2.25 1.88 3.644.956 4.394 2.831 2.25 5.624-5.918 1.086-8.29-1.289-7.125-7.125 5.129-4.238 9.886-3.738 14.25 1.5 1.84 7.563-1.29 11.313-9.375 11.254a17.818 17.818 0 0 1-6-1.125 63.257 63.257 0 0 0-6.004-5.629c-3.23 2.07-6.735 2.695-10.5 1.875-1.082-.281-1.832-.906-2.25-1.875ZM65.637 560.824c17.578-1.047 25.707 7.203 24.379 24.758a365.11 365.11 0 0 0-8.25 31.512c-.25-2.25-.504-4.5-.754-6.754-.258-1.762-1.133-3.137-2.625-4.125a1000.218 1000.218 0 0 0-52.508-12.38c-4.297 1.552-7.05 4.552-8.25 9.005l-.75-1.5a419.368 419.368 0 0 0 7.5-29.262 46.667 46.667 0 0 1 1.125 8.254l1.875 1.875a187.75 187.75 0 0 0 22.504 6.375 117.865 117.865 0 0 1 4.125-16.504c2.808-4.933 6.683-8.687 11.629-11.254Zm0 10.504c8.082-.683 14.707 2.067 19.879 8.254 2.421 4.234 2.421 8.488 0 12.754-1.38 1.656-3.13 2.656-5.254 3a725.76 725.76 0 0 0-27.38-6.004c.598-8.727 4.848-14.727 12.755-18.004ZM1463.871 571.328c.863.219 1.367.844 1.5 1.875a146.984 146.984 0 0 0 5.25 28.137c-.578.906-1.207.906-1.875 0-1.328-6.48-5.203-8.86-11.625-7.13a333.242 333.242 0 0 0-18.004 3c2.121 11.102 4.246 22.231 6.375 33.388a422.524 422.524 0 0 0 22.13-4.875 5.254 5.254 0 0 0 2.624-1.875c.707-2.98 1.336-5.98 1.875-9.004a415.828 415.828 0 0 0 6.004 29.633c-.355 1.207-.855 1.332-1.5.375-1.023-5.028-4.023-7.532-9.004-7.5a509.975 509.975 0 0 0-51.758 9.753c-.62.75-1.254 1.5-1.875 2.25-.054 3.141-.554 6.141-1.5 9.004a435.236 435.236 0 0 0-5.625-30.386c.246-.625.5-1.25.75-1.875.89 3.406 2.64 6.28 5.25 8.629a129.842 129.842 0 0 0 28.504-4.13 2276.399 2276.399 0 0 0-6.375-33.011c-8.086 1.664-16.21 3.289-24.379 4.879-1 .5-2.004 1-3 1.5-1.758 3.562-2.633 7.187-2.625 10.879a528.619 528.619 0 0 0-5.629-29.637c.25-.625.504-1.25.75-1.875a95.99 95.99 0 0 0 3.75 7.129 12.107 12.107 0 0 0 5.254 1.125 722.858 722.858 0 0 0 51.758-9.379c2.649-3.098 3.645-6.723 3-10.879ZM12.379 620.844c1.312 2.144 1.937 4.644 1.875 7.504.918 1.672 2.293 2.797 4.125 3.375a448.562 448.562 0 0 0 54.758 6.754c2.8-2.52 4.55-5.645 5.25-9.38l.75 1.876a2326.258 2326.258 0 0 0-4.875 30.386c.586-7.914-3.04-12.039-10.875-12.379a1217.775 1217.775 0 0 0-42.008-5.628c-5.766-.614-8.516 2.015-8.25 7.878.098 3.707 1.848 6.211 5.25 7.504a260.18 260.18 0 0 1 37.504 10.504c7.308 2.805 12.683 7.684 16.129 14.63.933 4.655.308 9.03-1.875 13.128-7.825 2.914-11.453.29-10.875-7.879a71.73 71.73 0 0 1 5.625-6.75c-3.125-4.574-7.375-7.699-12.754-9.379-13.11-4.906-26.613-7.656-40.504-8.254a30.512 30.512 0 0 0-5.254 8.63l-.75-1.5a445.886 445.886 0 0 0 6.754-51.02ZM179.656 639.602a759.72 759.72 0 0 1 33.754.375c1.02 1.453.77 2.703-.75 3.75-10.75.5-21.504.5-32.254 0-.68-1.274-.93-2.649-.75-4.125ZM1273.34 639.602c11.004-.125 22.008 0 33.004.375.937 1.093.937 2.218 0 3.375-10.996.875-21.992 1-33.004.375-.938-1.372-.938-2.747 0-4.125ZM111.395 640.352h27.003c.5 74.027 1 74.027 1.5 0h27.004a682.276 682.276 0 0 0 1.5 60.773h-58.507a682.276 682.276 0 0 0 1.5-60.773Zm1.5 2.25h23.253v52.52h-23.253v-52.52Zm29.253 0h22.504v52.52h-22.504v-52.52ZM223.164 640.352h27.004c.5 74.027 1 74.027 1.5 0h27.004a680.806 680.806 0 0 0 1.5 60.773h-58.508a682.276 682.276 0 0 0 1.5-60.773Zm1.5 2.25h23.254v52.52h-23.254v-52.52Zm29.254 0h22.504v52.52h-22.504v-52.52ZM1207.328 640.352h27.754c.504 74.027 1 74.027 1.5 0h27.004a682.276 682.276 0 0 0 1.5 60.773h-58.508c.703-20.246.953-40.504.75-60.773Zm2.25 2.25h23.254v52.52h-23.254v-52.52Zm28.504 0h23.254v52.52h-23.254v-52.52ZM1319.848 640.352h27.004c.503 74.027.996 74.027 1.5 0h27.003a682.276 682.276 0 0 0 1.5 60.773h-58.507a680.806 680.806 0 0 0 1.5-60.773Zm1.5 2.25h23.254v52.52h-23.254v-52.52Zm29.254 0h22.503v52.52h-22.503v-52.52Zm0 0"/><path style="stroke:none;fill-rule:evenodd;fill:#fefffe;fill-opacity:1" d="M114.395 644.102h9.75v16.507h-9.75v-16.507ZM125.645 644.102h9.753v16.507h-9.753v-16.507ZM142.898 644.102h9.754v16.507h-9.754v-16.507ZM154.152 644.102h9.75v16.507h-9.75v-16.507ZM226.164 644.102h9.75v16.507h-9.75v-16.507ZM237.414 644.102h9.754v16.507h-9.754v-16.507ZM254.668 644.102h9.75v16.507h-9.75v-16.507ZM265.918 644.102h9.754v16.507h-9.754v-16.507ZM1211.078 644.102h9.754v16.507h-9.754v-16.507ZM1222.332 644.102h9.75v16.507h-9.75v-16.507ZM1239.582 644.102h9.754v16.507h-9.754v-16.507ZM1250.836 644.102h9.75v16.507h-9.75v-16.507ZM1322.848 644.102h9.75v16.507h-9.75v-16.507ZM1334.098 644.102h9.754v16.507h-9.754v-16.507ZM1351.352 644.102h9.753v16.507h-9.753v-16.507ZM1362.605 644.102h9.75v16.507h-9.75v-16.507ZM181.906 644.852h3v8.253h-3v-8.253ZM185.656 644.852h10.5v8.253h-10.5v-8.253ZM196.906 644.852h6.004v8.253h-6.004v-8.253ZM203.66 644.852h3.75v8.253h-3.75v-8.253ZM208.16 644.852h3v8.253h-3v-8.253ZM1274.84 644.852h14.254v8.253h-14.254v-8.253ZM1289.844 644.852h6v8.253h-6v-8.253ZM1296.594 644.852h8.25v8.253h-8.25v-8.253ZM183.406 654.605h26.254v192.82h-26.254v-192.82ZM1277.09 654.605h26.254v192.82h-26.254v-192.82ZM114.395 662.11h9.75v9.753h-9.75v-9.754ZM125.645 662.11h9.753v9.753h-9.753v-9.754ZM142.898 662.11h9.754v9.753h-9.754v-9.754ZM154.152 662.11h9.75v9.753h-9.75v-9.754ZM226.164 662.11h9.75v9.753h-9.75v-9.754ZM237.414 662.11h9.754v9.753h-9.754v-9.754ZM254.668 662.11h9.75v9.753h-9.75v-9.754ZM265.918 662.11h9.754v9.753h-9.754v-9.754ZM1211.078 662.11h9.754v9.753h-9.754v-9.754ZM1222.332 662.11h9.75v9.753h-9.75v-9.754ZM1239.582 662.11h9.754v9.753h-9.754v-9.754ZM1250.836 662.11h9.75v9.753h-9.75v-9.754ZM1322.848 662.11h9.75v9.753h-9.75v-9.754ZM1334.098 662.11h9.754v9.753h-9.754v-9.754ZM1351.352 662.11h9.753v9.753h-9.753v-9.754ZM1362.605 662.11h9.75v9.753h-9.75v-9.754ZM1485.625 734.137v8.25a175.322 175.322 0 0 0-3.375-7.5 6.92 6.92 0 0 0-1.875-1.125 452.126 452.126 0 0 0-54.012 3.75 22.543 22.543 0 0 0-3.375 1.875 31.8 31.8 0 0 0-2.625 9.754 1004.005 1004.005 0 0 0-3.75-31.137c.246-.375.504-.75.75-1.125a828.443 828.443 0 0 1 3.375 7.504 5.247 5.247 0 0 0 2.625 1.875 567.899 567.899 0 0 0 42.758-3 370553.19 370553.19 0 0 0-40.508-33.762c-2.758-.773-5.136-.148-7.125 1.875a52.649 52.649 0 0 0-2.625 9.754 598.109 598.109 0 0 1-2.625-32.262 55.778 55.778 0 0 1 3 6.75c1.598 2.114 3.727 3.114 6.375 3.004a2062.85 2062.85 0 0 0 50.258-4.879 9.405 9.405 0 0 0 3.004-1.875 30.871 30.871 0 0 0 3-9.004c.77 9.653 1.77 19.282 3 28.887-.25.875-.504 1.75-.75 2.625-.723-3.305-2.223-6.183-4.5-8.629a14.803 14.803 0 0 0-4.879-1.125 1100.45 1100.45 0 0 0-38.629 3.75 665.107 665.107 0 0 0 40.504 33.387c2.941.723 5.32-.156 7.129-2.625l2.25-8.254c.8 7.836 1.672 15.59 2.625 23.262ZM114.395 674.113h9.75v19.508h-9.75v-19.508ZM125.645 674.113h9.753v19.508h-9.753v-19.508ZM142.898 674.113h9.754v19.508h-9.754v-19.508ZM154.152 674.113h9.75v19.508h-9.75v-19.508ZM226.164 674.113h9.75v19.508h-9.75v-19.508ZM237.414 674.113h9.754v19.508h-9.754v-19.508ZM254.668 674.113h9.75v19.508h-9.75v-19.508ZM265.918 674.113h9.754v19.508h-9.754v-19.508ZM1211.078 674.113h9.754v19.508h-9.754v-19.508ZM1222.332 674.113h9.75v19.508h-9.75v-19.508ZM1239.582 674.113h9.754v19.508h-9.754v-19.508ZM1250.836 674.113h9.75v19.508h-9.75v-19.508ZM1322.848 674.113h9.75v19.508h-9.75v-19.508ZM1334.098 674.113h9.754v19.508h-9.754v-19.508ZM1351.352 674.113h9.753v19.508h-9.753v-19.508ZM1362.605 674.113h9.75v19.508h-9.75v-19.508ZM-.375 740.137v-2.25c20.57-7.91 41.07-16.035 61.512-24.383 4.312-2.442 7.062-6.067 8.25-10.879l.75 1.875c-.465 9.371-.965 18.75-1.5 28.133-.407-3.516-2.157-6.016-5.25-7.5a434.68 434.68 0 0 1-19.504 6v21.008a289.399 289.399 0 0 0 18.754 6.004c1.406.082 2.531-.422 3.375-1.5a23.598 23.598 0 0 1 2.625-5.254c.25.504.5 1 .75 1.5-.469 8-.969 15.996-1.5 24.007-.844-4.574-3.094-8.199-6.75-10.878A1892.11 1892.11 0 0 0-.375 740.137Zm39.758-7.504c.863 4.867.988 9.87.375 15.008a5.11 5.11 0 0 1-1.125 2.25c-7.281-2.801-14.535-5.68-21.754-8.63a461.133 461.133 0 0 0 22.504-8.628ZM111.395 715.379h27.003c.5 74.027 1 74.027 1.5 0h27.004a682.115 682.115 0 0 0 1.5 60.77h-58.507a682.115 682.115 0 0 0 1.5-60.77Zm1.5 2.25h23.253v51.77h-23.253v-51.77Zm29.253 0h22.504v51.77h-22.504v-51.77ZM223.164 715.379h27.004c.5 74.027 1 74.027 1.5 0h27.004a680.646 680.646 0 0 0 1.5 60.77h-58.508a682.115 682.115 0 0 0 1.5-60.77Zm1.5 2.25h23.254v51.77h-23.254v-51.77Zm29.254 0h22.504v51.77h-22.504v-51.77ZM1207.328 715.379h27.754c.504 74.027 1 74.027 1.5 0h27.004a682.115 682.115 0 0 0 1.5 60.77h-58.508c.703-20.243.953-40.5.75-60.77Zm2.25 2.25h23.254v51.77h-23.254v-51.77Zm28.504 0h23.254v51.77h-23.254v-51.77ZM1319.848 715.379h27.004c.503 74.027.996 74.027 1.5 0h27.003a682.115 682.115 0 0 0 1.5 60.77h-58.507a680.646 680.646 0 0 0 1.5-60.77Zm1.5 2.25h23.254v51.77h-23.254v-51.77Zm29.254 0h22.503v51.77h-22.503v-51.77Zm0 0"/><path style="stroke:none;fill-rule:evenodd;fill:#fefffe;fill-opacity:1" d="M114.395 719.129h9.75v15.758h-9.75v-15.758ZM125.645 719.129h9.753v15.758h-9.753v-15.758ZM142.898 719.129h9.754v15.758h-9.754v-15.758ZM154.152 719.129h9.75v15.758h-9.75v-15.758ZM226.164 719.129h9.75v15.758h-9.75v-15.758ZM237.414 719.129h9.754v15.758h-9.754v-15.758ZM254.668 719.129h9.75v15.758h-9.75v-15.758ZM265.918 719.129h9.754v15.758h-9.754v-15.758ZM1211.078 719.129h9.754v15.758h-9.754v-15.758ZM1222.332 719.129h9.75v15.758h-9.75v-15.758ZM1239.582 719.129h9.754v15.758h-9.754v-15.758ZM1250.836 719.129h9.75v15.758h-9.75v-15.758ZM1322.848 719.129h9.75v15.758h-9.75v-15.758ZM1334.098 719.129h9.754v15.758h-9.754v-15.758ZM1351.352 719.129h9.753v15.758h-9.753v-15.758ZM1362.605 719.129h9.75v15.758h-9.75v-15.758ZM97.14 722.883c.876 19.129 1 38.383.376 57.77a280.913 280.913 0 0 1-1.125-28.887c.007-9.684.257-19.313.75-28.883ZM1388.86 722.883c.613 1.851.988 3.851 1.124 6a478.794 478.794 0 0 1-.75 51.77 2207.756 2207.756 0 0 1-.375-57.77ZM114.395 737.137h9.75v9.754h-9.75v-9.754ZM125.645 737.137h9.753v9.754h-9.753v-9.754ZM142.898 737.137h9.754v9.754h-9.754v-9.754ZM154.152 737.137h9.75v9.754h-9.75v-9.754ZM226.164 737.137h9.75v9.754h-9.75v-9.754ZM237.414 737.137h9.754v9.754h-9.754v-9.754ZM254.668 737.137h9.75v9.754h-9.75v-9.754ZM265.918 737.137h9.754v9.754h-9.754v-9.754ZM1211.078 737.137h9.754v9.754h-9.754v-9.754ZM1222.332 737.137h9.75v9.754h-9.75v-9.754ZM1239.582 737.137h9.754v9.754h-9.754v-9.754ZM1250.836 737.137h9.75v9.754h-9.75v-9.754ZM1322.848 737.137h9.75v9.754h-9.75v-9.754ZM1334.098 737.137h9.754v9.754h-9.754v-9.754ZM1351.352 737.137h9.753v9.754h-9.753v-9.754ZM1362.605 737.137h9.75v9.754h-9.75v-9.754ZM114.395 749.14h9.75v19.508h-9.75v-19.507ZM125.645 749.14h9.753v19.508h-9.753v-19.507ZM142.898 749.14h9.754v19.508h-9.754v-19.507ZM154.152 749.14h9.75v19.508h-9.75v-19.507ZM226.164 749.14h9.75v19.508h-9.75v-19.507ZM237.414 749.14h9.754v19.508h-9.754v-19.507ZM254.668 749.14h9.75v19.508h-9.75v-19.507ZM265.918 749.14h9.754v19.508h-9.754v-19.507ZM1211.078 749.14h9.754v19.508h-9.754v-19.507ZM1222.332 749.14h9.75v19.508h-9.75v-19.507ZM1239.582 749.14h9.754v19.508h-9.754v-19.507ZM1250.836 749.14h9.75v19.508h-9.75v-19.507ZM1322.848 749.14h9.75v19.508h-9.75v-19.507ZM1334.098 749.14h9.754v19.508h-9.754v-19.507ZM1351.352 749.14h9.753v19.508h-9.753v-19.507ZM1362.605 749.14h9.75v19.508h-9.75v-19.507ZM1416.613 754.39c.75-.019 1.246.356 1.5 1.126.106 3.714 1.606 6.714 4.5 9.004a261.44 261.44 0 0 0 27.004 1.125c9.535.078 19.031-.297 28.508-1.125 2.781-2.57 4.531-5.7 5.25-9.38-.164 8.985.082 17.985.75 27.012.496 7.407-2.004 13.528-7.5 18.383-9.625 4.363-17 1.992-22.129-7.129-4.96 15.164-14.582 19.043-28.883 11.63-4.738-4.36-7.613-9.731-8.625-16.13a313.072 313.072 0 0 0-.375-34.515Zm18.754 21.008c14.82-.359 29.578.016 44.258 1.125.93 11.204-4.32 16.207-15.754 15.008-6.742-1.343-9.992-5.468-9.75-12.379h-2.25c-1.375 13.254-8.621 19.13-21.754 17.63-7.824-2.587-10.953-7.97-9.379-16.13.88-1.875 2.25-3.25 4.125-4.129 3.64-.125 7.145-.5 10.504-1.125ZM331.18 781.402a365.897 365.897 0 0 1 28.504 13.504c.82.668.82 1.418 0 2.25-.75.504-1.5 1-2.25 1.5a329.274 329.274 0 0 1-53.258-.75c-.13-.988.12-1.867.75-2.625 8.797-4.652 17.55-9.273 26.254-13.879Zm0 5.25a172.614 172.614 0 0 1-13.5 7.13c9.75.503 19.504.503 29.254 0a111.413 111.413 0 0 0-15.754-7.13ZM1151.07 781.402a349.344 349.344 0 0 1 27.754 13.13c.66 1.019.906 2.144.75 3.374a280.713 280.713 0 0 1-27.754 1.5c-9.34-.043-18.59-.547-27.757-1.5-.126-.988.12-1.867.75-2.625 8.8-4.652 17.546-9.273 26.257-13.879Zm0 5.25a95.192 95.192 0 0 1-14.254 7.13c10 .503 20.004.503 30.004 0a641.818 641.818 0 0 0-15.75-7.13ZM67.887 782.902c.984 1.68 1.484 3.684 1.5 6.004a298.083 298.083 0 0 0 2.25 24.758c-.25.5-.5.996-.75 1.5-.985-3.594-2.735-6.715-5.25-9.379a166.38 166.38 0 0 0-27.754 1.125 759.053 759.053 0 0 0 1.875 31.512c.187.84.562 1.59 1.125 2.25a235.975 235.975 0 0 0 27.004-3.375c2.207-2.992 3.457-6.371 3.75-10.129.93 10.016 1.93 20.016 3 30.012-.25.5-.5.996-.75 1.5a53.115 53.115 0 0 0-3.75-7.88c-1.703-1.163-3.578-1.792-5.625-1.874-14.625 1.14-29.254 2.265-43.883 3.375-3.934-.328-7.309.797-10.129 3.379a78.93 78.93 0 0 1-2.25 8.25 1860.82 1860.82 0 0 0-2.625-29.258l.75-2.254A112.7 112.7 0 0 0 9 839.172c.992 1.492 2.367 2.363 4.129 2.625 7.496-.125 14.996-.5 22.504-1.125a520.976 520.976 0 0 0-2.254-33.762 183.372 183.372 0 0 0-23.254 2.625c-1.734.836-2.86 2.207-3.375 4.13a19.241 19.241 0 0 1-1.5 6 7207.572 7207.572 0 0 1-2.625-28.884l.75-2.629c.43 3.957 2.18 7.086 5.25 9.38a490.846 490.846 0 0 0 43.508-2.25c4.398-.04 8.648-.79 12.754-2.25 2.43-2.919 3.43-6.298 3-10.13ZM111.395 790.406h27.003c.5 74.028 1 74.028 1.5 0h27.004a682.079 682.079 0 0 0 1.5 60.77h-58.507a682.079 682.079 0 0 0 1.5-60.77Zm1.5 2.25h23.253v51.77h-23.253v-51.77Zm29.253 0h22.504v51.77h-22.504v-51.77ZM223.164 790.406h27.004c.5 74.028 1 74.028 1.5 0h27.004a680.61 680.61 0 0 0 1.5 60.77h-58.508a682.079 682.079 0 0 0 1.5-60.77Zm1.5 2.25h23.254v51.77h-23.254v-51.77Zm29.254 0h22.504v51.77h-22.504v-51.77ZM1207.328 790.406h27.754c.504 74.028 1 74.028 1.5 0h27.004a682.079 682.079 0 0 0 1.5 60.77h-58.508c.703-20.242.953-40.5.75-60.77Zm2.25 2.25h23.254v51.77h-23.254v-51.77Zm28.504 0h23.254v51.77h-23.254v-51.77ZM1319.848 790.406h27.004c.503 74.028.996 74.028 1.5 0h27.003a682.079 682.079 0 0 0 1.5 60.77h-58.507a680.61 680.61 0 0 0 1.5-60.77Zm1.5 2.25h23.254v51.77h-23.254v-51.77Zm29.254 0h22.503v51.77h-22.503v-51.77Zm0 0"/><path style="stroke:none;fill-rule:evenodd;fill:#fefffe;fill-opacity:1" d="M114.395 794.156h9.75v15.754h-9.75v-15.754ZM125.645 794.156h9.753v15.754h-9.753v-15.754ZM142.898 794.156h9.754v15.754h-9.754v-15.754ZM154.152 794.156h9.75v15.754h-9.75v-15.754ZM226.164 794.156h9.75v15.754h-9.75v-15.754ZM237.414 794.156h9.754v15.754h-9.754v-15.754ZM254.668 794.156h9.75v15.754h-9.75v-15.754ZM265.918 794.156h9.754v15.754h-9.754v-15.754ZM1211.078 794.156h9.754v15.754h-9.754v-15.754ZM1222.332 794.156h9.75v15.754h-9.75v-15.754ZM1239.582 794.156h9.754v15.754h-9.754v-15.754ZM1250.836 794.156h9.75v15.754h-9.75v-15.754ZM1322.848 794.156h9.75v15.754h-9.75v-15.754ZM1334.098 794.156h9.754v15.754h-9.754v-15.754ZM1351.352 794.156h9.753v15.754h-9.753v-15.754ZM1362.605 794.156h9.75v15.754h-9.75v-15.754ZM305.676 800.16h53.258v3.75h-53.258v-3.75ZM1125.563 800.16h52.511v3.75h-52.512v-3.75ZM307.176 804.66h49.508v5.25h-49.508v-5.25ZM1127.066 804.66h49.508v5.25h-49.508v-5.25ZM307.176 810.66h8.254a624.199 624.199 0 0 0 0 51.02h-8.254a441.087 441.087 0 0 0 0-51.02ZM348.434 810.66h8.25a1500.93 1500.93 0 0 0 0 51.02h-7.5a690.881 690.881 0 0 1 .75-42.766 141.09 141.09 0 0 0-1.5-8.254ZM114.395 812.164h9.75v9.754h-9.75v-9.754ZM125.645 812.164h9.753v9.754h-9.753v-9.754ZM142.898 812.164h9.754v9.754h-9.754v-9.754ZM154.152 812.164h9.75v9.754h-9.75v-9.754ZM226.164 812.164h9.75v9.754h-9.75v-9.754ZM237.414 812.164h9.754v9.754h-9.754v-9.754ZM254.668 812.164h9.75v9.754h-9.75v-9.754ZM265.918 812.164h9.754v9.754h-9.754v-9.754ZM1211.078 812.164h9.754v9.754h-9.754v-9.754ZM1222.332 812.164h9.75v9.754h-9.75v-9.754ZM1239.582 812.164h9.754v9.754h-9.754v-9.754ZM1250.836 812.164h9.75v9.754h-9.75v-9.754ZM1322.848 812.164h9.75v9.754h-9.75v-9.754ZM1334.098 812.164h9.754v9.754h-9.754v-9.754ZM1351.352 812.164h9.753v9.754h-9.753v-9.754ZM1362.605 812.164h9.75v9.754h-9.75v-9.754ZM1413.613 821.164a4286.15 4286.15 0 0 1 4.5 9.379 22.442 22.442 0 0 0 9 2.25c13.977 1.879 27.98 3.5 42.008 4.879 2.34.05 4.594-.324 6.754-1.125a148.063 148.063 0 0 0 3.75-7.129c-1.18 13.2-2.68 26.45-4.5 39.766.133 2.015.883 3.765 2.25 5.25-.504.25-1 .504-1.5.75a290.15 290.15 0 0 0-16.504-3.75 50.08 50.08 0 0 1 8.25-2.625c2.23-1.579 3.602-3.7 4.125-6.38.66-4.5 1.285-9.003 1.875-13.503a446.242 446.242 0 0 1-25.504-3c-.254 5.144-.75 10.27-1.5 15.379.137 3.258 1.637 5.636 4.5 7.129-.375.246-.75.5-1.125.75a62.23 62.23 0 0 0-14.625-2.625 3.379 3.379 0 0 1-1.5-1.13c3.23-.074 5.86-1.327 7.875-3.75.985-5.491 1.852-11 2.625-16.503a294.572 294.572 0 0 1-22.129-2.254c-4.629-.117-7.133 2.133-7.5 6.754a53.99 53.99 0 0 0 0 12.754 10.543 10.543 0 0 0 3.375 4.879c2.16 1.199 4.157 2.57 6 4.125-.375.246-.75.504-1.125.75-4.37-1.63-8.754-3.25-13.125-4.875-.976-.602-1.48-1.48-1.5-2.63a323.925 323.925 0 0 0 5.25-43.515ZM114.395 824.168h9.75v19.504h-9.75v-19.504ZM125.645 824.168h9.753v19.504h-9.753v-19.504ZM142.898 824.168h9.754v19.504h-9.754v-19.504ZM154.152 824.168h9.75v19.504h-9.75v-19.504ZM226.164 824.168h9.75v19.504h-9.75v-19.504ZM237.414 824.168h9.754v19.504h-9.754v-19.504ZM254.668 824.168h9.75v19.504h-9.75v-19.504ZM265.918 824.168h9.754v19.504h-9.754v-19.504ZM1211.078 824.168h9.754v19.504h-9.754v-19.504ZM1222.332 824.168h9.75v19.504h-9.75v-19.504ZM1239.582 824.168h9.754v19.504h-9.754v-19.504ZM1250.836 824.168h9.75v19.504h-9.75v-19.504ZM1322.848 824.168h9.75v19.504h-9.75v-19.504ZM1334.098 824.168h9.754v19.504h-9.754v-19.504ZM1351.352 824.168h9.753v19.504h-9.753v-19.504ZM1362.605 824.168h9.75v19.504h-9.75v-19.504ZM318.43 828.668h12.75v10.504h-12.75v-10.504ZM332.68 828.668h12.754v10.504H332.68v-10.504ZM1138.316 828.668h12.754v10.504h-12.754v-10.504ZM1152.57 828.668h12.75v10.504h-12.75v-10.504ZM318.43 840.672h12.75v18.758h-12.75v-18.758ZM332.68 840.672h12.754v18.758H332.68v-18.758ZM1138.316 840.672h12.754v18.758h-12.754v-18.758ZM1152.57 840.672h12.75v18.758h-12.75v-18.758ZM179.656 849.676h33.004v3.75c-11.004.129-22.004 0-33.004-.375-.922-1.117-.922-2.242 0-3.375ZM1274.09 849.676h33.004v3.75c-11.012.25-22.016 0-33.004-.75-.645-.922-.645-1.918 0-3ZM176.656 854.93h39.004v7.5h-39.004v-7.5ZM1271.09 854.93h39.004v7.5h-39.004v-7.5ZM46.883 878.188c25.847-1.211 40.097 11.042 42.758 36.761-3.309 24.438-17.309 35.809-42.008 34.137-15.371-3.367-24.746-12.746-28.13-28.137-4.003-22.844 5.122-37.097 27.38-42.761Zm7.5 12.003c8.383-1.105 16.133.524 23.254 4.875 9.672 11.825 8.672 22.832-3 33.012-11.828 8.645-24.828 11.14-39.004 7.504-10.63-5.387-14.254-13.77-10.88-25.133 3.72-8.226 9.845-13.851 18.38-16.883a201.495 201.495 0 0 1 11.25-3.375ZM1405.363 881.188c.465.082.84.328 1.125.75.246 2.5.5 5.003.75 7.503a5.247 5.247 0 0 0 1.875 2.625 757.233 757.233 0 0 0 52.508 11.63 7.814 7.814 0 0 0 3.75-1.126 21.263 21.263 0 0 0 4.5-7.129c.25.625.504 1.254.75 1.875a1806.149 1806.149 0 0 1-7.125 31.887c-6.21 13.649-15.836 16.777-28.879 9.379-7.883-7.523-10.887-16.656-9.004-27.383h2.25c.016 16.13 8.02 22.508 24.008 19.13 7.094-2.716 10.844-7.84 11.25-15.38a2080.116 2080.116 0 0 0-54.383-11.254c-4.703.7-7.449 3.45-8.254 8.254-.539.711-1.16.84-1.875.375a215.866 215.866 0 0 0 6.754-31.136ZM114.395 893.941h11.25V912.7a36.06 36.06 0 0 1-10.125-.75 83.658 83.658 0 0 1-1.125-18.008ZM127.898 893.941h10.5V912.7h-10.5v-18.758ZM140.648 893.941h10.504V912.7h-10.504v-18.758ZM153.402 893.941h11.25V912.7h-11.25v-18.758ZM226.164 893.941h11.25V912.7h-11.25v-18.758ZM239.664 893.941h10.504V912.7h-10.504v-18.758ZM252.418 893.941h11.25V912.7h-11.25v-18.758ZM265.168 893.941h11.254V912.7h-11.254v-18.758ZM1210.328 893.941h10.504V912.7h-10.504v-18.758ZM1223.082 893.941h11.25V912.7h-11.25v-18.758ZM1235.832 893.941h11.254V912.7h-11.254v-18.758ZM1249.336 893.941h10.5V912.7h-10.5v-18.758ZM1322.098 893.941h10.5V912.7h-10.5v-18.758ZM1334.848 893.941h11.254V912.7h-11.254v-18.758ZM1348.352 893.941h10.503V912.7h-10.503v-18.758ZM1361.105 893.941h10.5a113.44 113.44 0 0 1-.75 18.008c-3.21.742-6.464.996-9.75.75v-18.758ZM316.18 903.695h33.754v41.266H316.18v-41.266Zm2.25 1.5v38.266h29.254v-38.266H318.43ZM1136.066 903.695h33.004v41.266h-33.004v-41.266Zm2.25 1.5v38.266h29.254v-38.266h-29.254Zm0 0"/><path style="stroke:none;fill-rule:evenodd;fill:#fefffe;fill-opacity:1" d="M319.93 906.695h12V917.2h-12v-10.504ZM334.18 906.695h12.004V917.2H334.18v-10.504ZM1139.816 906.695h12.004V917.2h-12.004v-10.504ZM1154.07 906.695h11.25V917.2h-11.25v-10.504ZM116.645 914.95h9a630.97 630.97 0 0 1-.375 30.76 240.125 240.125 0 0 1-8.625-30.76ZM127.898 914.95h10.5v35.26h-10.5v-35.26ZM140.648 914.95h11.254v35.26h-11.254v-35.26ZM153.402 914.95h11.25v35.26h-11.25v-35.26ZM226.914 914.95h10.5v35.26h-10.5v-35.26ZM239.664 914.95h10.504v35.26h-10.504v-35.26ZM252.418 914.95h11.25v35.26h-11.25v-35.26ZM265.918 914.95h10.504v35.26h-10.504v-35.26ZM1210.328 914.95h10.504v35.26h-10.504v-35.26ZM1223.082 914.95h10.5v35.26h-10.5v-35.26ZM1235.832 914.95h11.254v35.26h-11.254v-35.26ZM1249.336 914.95h10.5v35.26h-10.5v-35.26ZM1322.098 914.95h10.5v35.26h-10.5v-35.26ZM1334.848 914.95h11.254v35.26h-11.254v-35.26ZM1347.602 914.95h11.253v35.26h-11.253v-35.26ZM1361.105 914.95h9a432.334 432.334 0 0 1-8.625 30.76 626.08 626.08 0 0 1-.375-30.76ZM319.93 918.7h12v11.253h-12V918.7ZM334.18 918.7h12.004v11.253H334.18V918.7ZM1139.816 918.7h12.004v11.253h-12.004V918.7ZM1154.07 918.7h11.25v11.253h-11.25V918.7ZM319.93 931.453h12v10.504h-12v-10.504ZM334.18 931.453h12.004v10.504H334.18v-10.504ZM1139.816 931.453h12.004v10.504h-12.004v-10.504ZM1154.07 931.453h11.25v10.504h-11.25v-10.504ZM313.93 945.71h37.504v6H313.93v-6ZM1133.816 945.71h37.504v6h-37.504v-6ZM96.39 947.96c1.075.286 1.7 1.036 1.876 2.25a217.275 217.275 0 0 0 8.629 27.388l-.75 1.125c-1.563-4.188-4.438-6.942-8.63-8.254a596.476 596.476 0 0 0-39.378 12.379 1055.867 1055.867 0 0 0 47.258 24.382c2.648-.523 4.523-2.023 5.625-4.5 0-3.054.125-6.054.375-9.003a340.714 340.714 0 0 0 9.75 30.011c-.375.766-.875.89-1.5.375-1.493-3.754-4.118-6.12-7.875-7.129a532.396 532.396 0 0 0-52.508 16.508 13.566 13.566 0 0 0-1.88 4.875c.766 1.914.766 3.79 0 5.63a334.428 334.428 0 0 0-9.75-29.263c.25-.246.5-.504.75-.75a83.858 83.858 0 0 1 4.5 6.375 9.726 9.726 0 0 0 4.5 1.13 1228.87 1228.87 0 0 0 40.509-11.63 1018.046 1018.046 0 0 0-46.508-24.011c-2.942-.72-5.317.16-7.125 2.629-.403 3.285-.903 6.539-1.5 9.75a229.83 229.83 0 0 0-8.254-27.758c-.5-.996-.5-2.004 0-3a27.004 27.004 0 0 1 3.004 5.25c1.332 1.695 3.082 2.703 5.25 3 14.71-4.086 29.34-8.461 43.883-13.13a24.608 24.608 0 0 0 9-4.124c1.703-3.375 1.953-6.871.75-10.504ZM1409.863 950.21c23.32.946 35.57 13.071 36.754 36.388-.426 11.422-4.176 21.55-11.25 30.386-.625.25-1.254.504-1.875.75a80.335 80.335 0 0 1-14.629-3c12.692-1.066 20.32-7.816 22.88-20.257.878-13.618-4.997-22.997-17.63-28.133-15.367-6.094-28.742-3.211-40.129 8.625-6.812 11.48-5.183 21.61 4.875 30.386-1 .504-2.004.504-3 0-3.625-2.625-7.254-5.25-10.879-7.878-.41-17.059 5.965-30.938 19.13-41.637 5.003-2.875 10.253-4.75 15.753-5.63ZM1367.855 1009.484a1.82 1.82 0 0 1 1.5.375c-1.582 3.344-1.703 6.72-.375 10.125a506.738 506.738 0 0 0 51.383 22.512c3.692-1.434 6.438-3.941 8.254-7.504.246.375.5.75.75 1.125a281.418 281.418 0 0 0-12.004 28.133c-.14-2.934-.27-5.934-.375-9a5.264 5.264 0 0 0-1.875-2.629 650.848 650.848 0 0 0-39.008-16.504 4173.284 4173.284 0 0 1 20.63 48.39c1.742 1.954 3.863 2.575 6.374 1.876 2.5-1.5 4.504-3.5 6.004-6 .621-.52 1.125-.39 1.5.375a135.42 135.42 0 0 0-11.254 27.758 3.691 3.691 0 0 1-2.25-.375c2.43-4.184 1.93-7.938-1.5-11.254a1265.308 1265.308 0 0 0-45.007-19.504c-2.184-.992-4.434-1.238-6.75-.75-2.34 1.902-4.336 4.156-6 6.75-.504.504-1 .504-1.5 0a521.51 521.51 0 0 0 13.125-29.633 84.57 84.57 0 0 0 0 9.75c.878.879 1.75 1.75 2.625 2.629a3490.192 3490.192 0 0 0 36.757 16.129c.246-.246.5-.504.75-.75a2008.09 2008.09 0 0 1-19.879-48.016c-2.43-2.02-5.054-2.394-7.875-1.125-1.875 2.375-3.753 4.746-5.628 7.125-.125-.375-.247-.75-.375-1.125a477.77 477.77 0 0 0 12.003-28.883ZM139.898 1025.988c1.391-.172 2.016.332 1.875 1.5-5.074 2.328-8.199 6.2-9.375 11.63a847.602 847.602 0 0 0 29.254 60.773c-.261.945-.761 1.191-1.5.75-1.71-3.086-4.21-5.215-7.5-6.38a2110.372 2110.372 0 0 0-49.511 23.634c-3.5 3.273-4 7.023-1.5 11.253l-.75 1.125a295.349 295.349 0 0 0-14.25-28.132l1.125-1.125c1.875 2.648 4 5.027 6.375 7.125 1.25.504 2.5.504 3.75 0a564.432 564.432 0 0 0 46.132-22.883l1.875-4.125a87.081 87.081 0 0 0-12.75-25.508 9.305 9.305 0 0 0-5.25 0 1812.326 1812.326 0 0 1-44.257 21.758c-3.465 3.418-3.965 7.297-1.5 11.629-.25.246-.504.5-.75.75A731.948 731.948 0 0 0 67.137 1062c.375-.766.875-.89 1.5-.375a22.463 22.463 0 0 0 4.5 5.254c1.648 1.027 3.398 1.281 5.25.75a1545.363 1545.363 0 0 0 41.258-19.508 27.844 27.844 0 0 0 7.875-5.625 34.528 34.528 0 0 0-1.5-9.754 96.798 96.798 0 0 0 13.878-6.754ZM1325.098 1098.016c.66-.098 1.156.148 1.5.75a39.216 39.216 0 0 0-2.25 7.125c.226 2.191 1.222 3.949 3 5.254a2618.893 2618.893 0 0 0 45.007 28.132 77.236 77.236 0 0 0 9.38-15.004c.695-3.863-.176-7.367-2.63-10.503.649-.81 1.399-.938 2.25-.375a76.65 76.65 0 0 1 10.504 11.628 21.285 21.285 0 0 0-7.125 4.5 416.24 416.24 0 0 0-24.754 40.516c-.52 1.555-.39 3.055.375 4.5a3.41 3.41 0 0 1-1.125 1.504 302.036 302.036 0 0 1-13.128-12.004c.375-.25.75-.504 1.125-.754 3.316 2.746 6.691 2.875 10.125.375a234.745 234.745 0 0 0 9.753-15.004 2150.737 2150.737 0 0 0-45.757-28.508c-1.465-.746-2.965-.992-4.5-.753a43.235 43.235 0 0 0-7.13 6.378l-1.124-1.125a292.857 292.857 0 0 0 16.504-26.632ZM163.902 1107.016c.746-.067 1.371.187 1.875.75a149.244 149.244 0 0 0 16.13 23.261c-.65.809-1.4.938-2.25.375-1.747-2.77-3.997-3.52-6.755-2.254a172.18 172.18 0 0 0-11.625 15.383c1.563 3.61 3.563 7.114 6 10.504a39.474 39.474 0 0 0 6 6.75 132.023 132.023 0 0 0 18.754-6c1.57-2.719 1.446-5.344-.375-7.879.375-.129.75-.246 1.125-.375a277.135 277.135 0 0 0 14.63 19.883l-1.126 1.125c-3.703-4.293-8.328-5.918-13.879-4.879-21.238 5-42.488 9.875-63.758 14.633a30.566 30.566 0 0 1 2.625-6.004 2775.24 2775.24 0 0 0 33.004-51.766c1.52-4.562 1.395-9.066-.375-13.507Zm-6 42.015c3.907 4.328 7.032 9.086 9.375 14.254a1377.926 1377.926 0 0 0-21.379 6.004c-.765-.375-.89-.879-.375-1.5a452.912 452.912 0 0 0 12.38-18.758ZM749.75 1110.02h11.254c.223 28.523.726 57.035 1.5 85.527a58.607 58.607 0 0 0-9.754.75 3257.84 3257.84 0 0 0-21-81.777c.156-.442.406-.817.75-1.125 5.852-1.141 11.602-2.266 17.25-3.375ZM764.754 1110.02c9.855.011 19.61 1.011 29.254 3a3247.996 3247.996 0 0 1-19.88 81.777c-.39.765-1.01 1.262-1.874 1.5a25.661 25.661 0 0 0-7.5-.75v-85.527ZM380.688 1111.52c25.687-.25 51.316 0 76.89.75 18.25 62.52 36.504 125.046 54.758 187.566a27127.374 27127.374 0 0 1 55.883-187.566c25.25-.75 50.504-1 75.765-.75v9.753a181.901 181.901 0 0 0-24.754 1.125c-3.44.403-6.066 2.024-7.878 4.875-.5 72.528-.5 145.051 0 217.579.87 4.867 3.746 7.742 8.628 8.628a169.2 169.2 0 0 0 22.504 1.125 147.297 147.297 0 0 0-.75 10.504h-104.27v-10.504c8.817.204 17.567-.43 26.255-1.875 5.543-2.19 8.418-6.32 8.629-12.378.5-68.778.5-137.547 0-206.325a40096.95 40096.95 0 0 0-65.637 231.082 41.6 41.6 0 0 1-10.879-.75l-70.512-238.586c-.5 71.524-.5 143.055 0 214.579 2.157 5.398 6.032 9.03 11.63 10.875a79.071 79.071 0 0 0 21.753 3.378c.027 3.52.277 7.024.75 10.504-26.758.125-53.512 0-80.265-.375.726-3.3.976-6.68.75-10.129 9.335.211 18.085-1.914 26.253-6.378a15.238 15.238 0 0 0 4.88-6.375 212.811 212.811 0 0 0 1.5-23.258c.5-49.766.5-99.54 0-149.305a707.86 707.86 0 0 0-1.5-44.266c-.626-.62-1.25-1.253-1.876-1.875-9.5-.375-19-.503-28.507-.375v-11.253ZM878.773 1111.52H984.54v9.753a357.89 357.89 0 0 0-23.254.375c-5.375 1.372-8.754 4.747-10.125 10.13a13774.15 13774.15 0 0 0 0 204.07 7272.868 7272.868 0 0 0 97.14-210.45 7.254 7.254 0 0 0-2.25-3.75c-9-.375-18.003-.503-27.003-.375v-9.753h101.265v9.753a357.89 357.89 0 0 0-23.253.375c-4.246 2.594-7.371 6.22-9.375 10.88-.504 70.277-.504 140.546 0 210.824 1.304 5.054 4.425 8.433 9.375 10.128a129.805 129.805 0 0 0 23.254 1.125v11.254h-101.266v-11.254c8.805.329 17.558-.046 26.254-1.125 4.457-3.543 6.832-8.171 7.125-13.882.422-65.407 1.043-130.809 1.875-196.192a19.406 19.406 0 0 0-1.125-4.129 79401.124 79401.124 0 0 0-95.64 211.2c.91 2.41 2.655 3.656 5.25 3.753 7.245.375 14.5.5 21.753.375v11.254H878.773v-11.254c9 .125 18.004 0 27.004-.375 4.547-.796 7.426-3.421 8.625-7.878.864-36.485 1.239-73 1.125-109.54-.125-35.261-.246-70.523-.375-105.785-1.07-4.824-3.945-7.945-8.625-9.379a509.665 509.665 0 0 0-27.754-.375v-9.753ZM727.246 1114.52a4739.653 4739.653 0 0 1 23.254 81.027 3.694 3.694 0 0 1-.75 1.879c-2.254.875-4.504 1.754-6.75 2.625a1490.232 1490.232 0 0 1-42.008-73.153c.11-.578.36-1.078.75-1.5a183.701 183.701 0 0 1 25.504-10.878ZM797.758 1114.52c9.933 2.558 19.183 6.558 27.758 12.003a5343.503 5343.503 0 0 1-41.258 74.278 42.956 42.956 0 0 1-8.254-4.504 3235.434 3235.434 0 0 0 21.754-81.777ZM828.516 1128.023c8.902 4.84 16.898 10.97 24.004 18.383a3366.077 3366.077 0 0 1-58.887 61.145 83.698 83.698 0 0 1-7.125-6 3144.451 3144.451 0 0 0 42.008-73.528ZM695.742 1128.773c.883-.164 1.633.082 2.25.75a4931.465 4931.465 0 0 0 41.633 70.528c.5.75.5 1.5 0 2.25a57.517 57.517 0 0 1-6.375 4.5 2193.755 2193.755 0 0 1-58.887-59.27c-.511-.96-.386-1.84.375-2.625 6.5-6.136 13.5-11.515 21.004-16.133ZM1295.844 1145.281c.593.211 1.093.586 1.5 1.125-2.551 3.114-3.172 6.489-1.875 10.13a680.553 680.553 0 0 0 43.133 32.636c3.832.832 6.832-.414 9-3.754.855-.563 1.605-.434 2.25.375a508.675 508.675 0 0 0-22.88 29.262c-1.988 2.703-3.234 5.449-3.75 8.254a284.525 284.525 0 0 0-13.128-11.254c.504-.25 1-.504 1.5-.75 3.984 2.582 7.992 2.707 12.004.375 3.53-3.782 6.789-7.79 9.75-12.004l-19.875-15.383c-3.25 4.504-6.504 9.004-9.754 13.508-.598 2.406-.223 4.656 1.125 6.75-.375.765-.875.894-1.5.375-4.157-3.79-8.41-7.41-12.75-10.88.375-.245.75-.5 1.125-.75 2.457 1.997 5.086 2.372 7.875 1.126 3.504-4.254 7-8.5 10.5-12.754a448.946 448.946 0 0 0-20.25-14.254c-1.856-.535-3.602-.277-5.254.75-4.395 4.285-7.395 9.406-9 15.379a36.795 36.795 0 0 0 4.5 10.129c-1.402.535-2.527.16-3.375-1.125a163.477 163.477 0 0 0-7.875-10.504 1618.325 1618.325 0 0 0 27.004-36.762ZM854.77 1149.031c7.214 7.024 13.464 14.903 18.753 23.633a6715.597 6715.597 0 0 1-72.765 43.89 43.694 43.694 0 0 0-4.875-6c-.5-.75-.5-1.5 0-2.25a6577.476 6577.476 0 0 0 58.887-59.273ZM669.488 1149.781a3.71 3.71 0 0 1 2.25.375 3226.835 3226.835 0 0 1 58.883 58.149c-.969 2.902-2.719 5.398-5.25 7.5a6245.611 6245.611 0 0 1-72.387-42.766 191.453 191.453 0 0 1 16.504-23.258ZM209.66 1173.04a998.347 998.347 0 0 1 21.004 23.632l-.375 1.129c-2.605-3.371-5.98-4.742-10.129-4.13a345.857 345.857 0 0 0-21 17.259c7.375 8.379 14.75 16.754 22.13 25.132a314.375 314.375 0 0 0 19.5-17.257 7.717 7.717 0 0 0 1.124-3.75 20.652 20.652 0 0 0-3.75-8.254c.25-.246.5-.5.75-.75a473.068 473.068 0 0 0 21.004 24.012c-1.941.027-3.691-.844-5.25-2.63-1.691-.863-3.441-1.109-5.25-.75a674.129 674.129 0 0 0-40.883 34.887c-.625 1.254-1.25 2.5-1.875 3.754a60.526 60.526 0 0 0 3.75 8.25l-.75.754a440.05 440.05 0 0 0-20.254-23.262c.25-.246.5-.5.75-.75a35.876 35.876 0 0 1 5.25 3.38c1.5.5 3.004.5 4.504 0a167.014 167.014 0 0 0 18-14.633 962.194 962.194 0 0 0-21.004-24.383c-.75-.504-1.5-.504-2.25 0a234.663 234.663 0 0 0-16.125 15.382c-.562 3.508.313 6.637 2.625 9.376l-.75 1.124a443.358 443.358 0 0 0-20.254-23.257c.25-.246.5-.5.75-.75a24.753 24.753 0 0 0 7.875 4.504 13.532 13.532 0 0 0 4.875-1.875c12.88-11.383 25.758-22.758 38.633-34.141.3-1.027.676-2.031 1.125-3a1988.99 1988.99 0 0 1-3.75-9.004Zm0 0"/><path style="stroke:none;fill-rule:evenodd;fill:#fefffe;fill-opacity:1" d="M875.023 1176.043c5.383 8.875 9.137 18.254 11.25 28.133a7161.903 7161.903 0 0 0-79.886 22.883 2.93 2.93 0 0 1-1.5-.75 61.974 61.974 0 0 0-2.625-7.125 7.085 7.085 0 0 1 2.25-2.254 4788.201 4788.201 0 0 0 70.511-40.887ZM649.984 1176.793a6.584 6.584 0 0 1 3.75 1.125 4888.136 4888.136 0 0 1 70.512 40.887 167.689 167.689 0 0 0-3.375 8.254 3882.646 3882.646 0 0 1-81.387-22.883 164.596 164.596 0 0 1 10.5-27.383ZM1250.836 1202.3a3.71 3.71 0 0 1 2.25.376c-3.504 3.347-4.375 7.226-2.625 11.629a1394.503 1394.503 0 0 0 39.758 37.511 71.738 71.738 0 0 0 12.75-15.004c.097-3.113-.524-6.113-1.875-9.003.375-.246.75-.5 1.125-.75a46.895 46.895 0 0 1 9.375 15.007 11.034 11.034 0 0 0-6 1.125c-12.48 11.477-23.86 23.856-34.13 37.137a15.11 15.11 0 0 1-1.124 4.5 139.314 139.314 0 0 1-10.504-13.504c1.582-.156 3.086.473 4.5 1.875 3.16.766 5.914.016 8.254-2.25a111.933 111.933 0 0 1 10.5-11.254c-13.254-12.25-26.5-24.511-39.754-36.761-1.254-.625-2.5-1.254-3.754-1.875a23.797 23.797 0 0 0-8.25 5.25c-.246-.375-.504-.75-.75-1.125a211.042 211.042 0 0 1 14.629-15.38 76.959 76.959 0 0 0 5.625-7.503Zm0 0"/><path style="stroke:none;fill-rule:evenodd;fill:#fefffe;fill-opacity:1" d="M884.773 1208.305c1.23-.16 2.356.09 3.375.75a122.974 122.974 0 0 1 3.375 28.507 3932.76 3932.76 0 0 0-81.761 1.5v2.254h81.761a132.171 132.171 0 0 1-3.375 29.258 2134.982 2134.982 0 0 1-81.386-19.883c-.594-2.062-.594-4.183 0-6.375H740.75v-9.754h66.012a38.324 38.324 0 0 1-.75-5.253 3017.702 3017.702 0 0 0 78.761-21.004ZM718.996 1252.57c.883-.168 1.633.082 2.25.75a90.991 90.991 0 0 0 3 7.125 3418.566 3418.566 0 0 1-72.387 42.39c-5.922-8.35-9.797-17.6-11.625-27.757a3634.327 3634.327 0 0 0 78.762-22.508Zm0 0"/><path style="stroke:none;fill-rule:evenodd;fill:#fefffe;fill-opacity:1" d="M805.262 1252.57a2530.805 2530.805 0 0 1 81.761 23.258 154.526 154.526 0 0 1-10.875 26.258c-.543.715-1.164.84-1.875.375-24.253-13.879-48.511-27.758-72.761-41.64a61.982 61.982 0 0 0 3.75-8.25ZM724.996 1263.07a86.06 86.06 0 0 1 6 7.13 3394.359 3394.359 0 0 1-59.633 60.398 139.514 139.514 0 0 1-18.379-23.637 5409.887 5409.887 0 0 1 72.012-43.89ZM800.008 1263.07a11186.7 11186.7 0 0 1 73.14 42.766c-4.203 8.726-9.828 16.605-16.878 23.637-.504.5-1 .5-1.5 0a3365.56 3365.56 0 0 1-60.012-59.274c2.222-2.086 3.976-4.465 5.25-7.129ZM732.5 1272.074a78.563 78.563 0 0 1 7.5 5.63 10230.015 10230.015 0 0 1-41.258 72.398c-.918.835-1.918.96-3 .375a82.124 82.124 0 0 1-21.754-17.63c19.52-20.273 39.024-40.53 58.512-60.773ZM792.508 1272.074a2251.347 2251.347 0 0 1 59.637 60.024c-.93 2.46-2.551 4.582-4.88 6.375a137.328 137.328 0 0 1-17.624 12.379 3484.8 3484.8 0 0 1-43.883-73.149 27.174 27.174 0 0 0 6.75-5.629ZM741.5 1278.828a33.575 33.575 0 0 0 9 3c-7.121 26.996-14.246 54.004-21.379 81.031-.387.762-1.012 1.258-1.875 1.5-9.496-2.16-18.246-5.914-26.254-11.254a5355.888 5355.888 0 0 0 40.508-74.277ZM782.758 1278.828c.75-.066 1.37.188 1.875.75a10751.184 10751.184 0 0 1 40.883 73.152c-7.79 5.266-16.293 9.145-25.508 11.63a3.73 3.73 0 0 1-1.875-.75 3817.586 3817.586 0 0 0-22.88-80.657 53.716 53.716 0 0 0 7.505-4.125ZM752.75 1283.328c3.004.25 6.004.504 9.004.75v85.531c-10.27.153-20.274-1.222-30.004-4.125a20415.168 20415.168 0 0 0 21-82.156ZM769.254 1283.328h4.5a7709.503 7709.503 0 0 0 21.004 82.531 120.884 120.884 0 0 1-29.254 3.75c-.414-28.507-.914-57.02-1.5-85.53 1.922.226 3.668-.02 5.25-.75ZM1120.313 1411.625H379.937v-22.508h740.375v22.508Zm0 0"/></svg>