<svg xmlns="http://www.w3.org/2000/svg" viewBox="0 0 49 44" height="44" width="50"><g xmlns="http://www.w3.org/2000/svg" transform="matrix(-1 0 0 -1 49 44)"><path style="stroke:none;fill-rule:nonzero;fill:#efeff5;fill-opacity:1" d="M23.98.043c-.761.105-1.535.547-2.05 1.172-.145.18-1.653 2.793-4.914 8.539C3.414 33.71.473 38.894.336 39.164c-.234.469-.309.82-.309 1.457-.004.45.012.602.078.86.352 1.273 1.34 2.206 2.61 2.449.285.054 2.348.062 21.781.062 19.43 0 21.492-.008 21.781-.062 1.266-.242 2.258-1.176 2.606-2.45.07-.257.086-.41.082-.859 0-.637-.078-.988-.313-1.457-.078-.16-2.89-5.129-6.25-11.039-3.355-5.906-8.136-14.324-10.62-18.7-3.126-5.51-4.579-8.03-4.723-8.21A3.39 3.39 0 0 0 25.355.113C25 .02 24.375-.012 23.98.043Zm0 0" /></g></svg>